<?xml version="1.0" encoding="utf-8"?>
<!-- Generator: Adobe Illustrator 23.0.2, SVG Export Plug-In . SVG Version: 6.00 Build 0)  -->
<svg version="1.1" id="Lager_1" xmlns="http://www.w3.org/2000/svg" xmlns:xlink="http://www.w3.org/1999/xlink" x="0px" y="0px"
	 viewBox="0 0 103.77 113.39" style="enable-background:new 0 0 103.77 113.39;" xml:space="preserve">
<style type="text/css">
	.st0{fill:#FFFFFF;}
</style>
<g>
	<path class="st0" d="M80.57,0H23.2C10.39,0,0,10.39,0,23.2v0c0,12.82,10.39,23.2,23.2,23.2h57.36c12.82,0,23.2-10.39,23.2-23.2v0
		C103.77,10.39,93.38,0,80.57,0z M79.05,38.2c-8.28,0-15-6.71-15-15s6.71-15,15-15s14.99,6.71,14.99,15S87.33,38.2,79.05,38.2z"/>
	<path class="st0" d="M80.57,66.98H23.2C10.39,66.98,0,77.37,0,90.18v0c0,12.82,10.39,23.2,23.2,23.2h57.36
		c12.82,0,23.2-10.39,23.2-23.2v0C103.77,77.37,93.38,66.98,80.57,66.98z M24.72,105.18c-8.28,0-15-6.71-15-15c0-8.28,6.71-15,15-15
		c8.28,0,14.99,6.71,14.99,15C39.71,98.46,33,105.18,24.72,105.18z"/>
</g>
</svg>
