<?xml version="1.0" encoding="utf-8"?>
<!-- Generator: Adobe Illustrator 23.0.2, SVG Export Plug-In . SVG Version: 6.00 Build 0)  -->
<svg version="1.1" id="Lager_1" xmlns="http://www.w3.org/2000/svg" xmlns:xlink="http://www.w3.org/1999/xlink" x="0px" y="0px"
	 viewBox="0 0 153.52 113.39" style="enable-background:new 0 0 153.52 113.39;" xml:space="preserve">
<style type="text/css">
	.st0{fill:#FFFFFF;}
</style>
<g>
	<path class="st0" d="M81.86,81.57l6.18-6.09c3.62,2.38,7.58,4.02,11.68,4.92l-0.06,8.7c-0.01,1.8,1.44,3.27,3.24,3.29l8.12,0.06
		c1.8,0.01,3.27-1.44,3.29-3.24l0.06-8.7c4.11-0.84,8.1-2.42,11.75-4.75l6.09,6.18c1.27,1.28,3.33,1.3,4.61,0.03l5.78-5.7
		c1.28-1.26,1.3-3.33,0.03-4.61l-6.09-6.18c2.38-3.62,4.02-7.58,4.92-11.68l8.7,0.06c1.8,0.01,3.27-1.44,3.29-3.24l0.06-8.12
		c0.01-1.8-1.44-3.27-3.24-3.29l-8.7-0.06c-0.84-4.11-2.42-8.1-4.75-11.76l6.18-6.09c1.28-1.26,1.3-3.33,0.03-4.61l-5.7-5.78
		c-1.27-1.28-3.33-1.3-4.61-0.03l-6.18,6.09c-3.62-2.38-7.58-4.02-11.68-4.92l0.06-8.7c0.01-1.8-1.44-3.27-3.24-3.29L103.58,0
		c-1.8-0.01-3.27,1.44-3.29,3.24l-0.06,8.7c-4.11,0.84-8.1,2.42-11.75,4.75l-6.09-6.18c-1.27-1.28-3.33-1.3-4.61-0.03l-5.78,5.7
		c-1.28,1.26-1.3,3.33-0.03,4.61l6.09,6.18c-2.38,3.62-4.02,7.58-4.92,11.68l-8.7-0.06c-1.8-0.01-3.27,1.44-3.29,3.24l-0.06,8.12
		c-0.01,1.8,1.44,3.27,3.24,3.29l8.7,0.06c0.84,4.11,2.42,8.1,4.75,11.76l-6.18,6.09c-1.28,1.26-1.3,3.33-0.03,4.61l5.7,5.78
		C78.51,82.82,80.57,82.83,81.86,81.57z M88.62,54.34c-0.14-0.31-0.27-0.62-0.39-0.94c-1.77-4.72-1.73-9.95,0.11-14.64
		c0.12-0.32,0.26-0.62,0.4-0.93c1-2.22,2.41-4.31,4.24-6.12s3.95-3.18,6.18-4.15c0.31-0.13,0.62-0.27,0.94-0.39
		c4.72-1.77,9.95-1.73,14.64,0.11c0.32,0.12,0.62,0.26,0.93,0.4c2.22,1,4.31,2.4,6.12,4.24c1.81,1.84,3.18,3.95,4.15,6.19
		c0.14,0.31,0.27,0.62,0.39,0.94c1.77,4.72,1.73,9.95-0.11,14.64c-0.12,0.32-0.26,0.62-0.4,0.93c-1,2.22-2.41,4.31-4.24,6.12
		s-3.95,3.18-6.18,4.15c-0.31,0.13-0.62,0.27-0.94,0.39c-4.72,1.77-9.95,1.73-14.64-0.11c-0.32-0.12-0.62-0.26-0.93-0.4
		c-2.22-1-4.31-2.41-6.12-4.24C90.96,58.69,89.59,56.58,88.62,54.34z"/>
	<path class="st0" d="M7.92,98.35l5.99-3.02c2.1,2.61,4.62,4.75,7.43,6.39l-2.11,6.38c-0.44,1.32,0.28,2.75,1.6,3.18l5.95,1.97
		c1.32,0.44,2.75-0.28,3.18-1.6l2.11-6.38c3.22,0.36,6.53,0.14,9.77-0.71l3.02,5.99c0.63,1.24,2.14,1.74,3.39,1.12l5.6-2.82
		c1.24-0.63,1.74-2.14,1.12-3.39l-3.02-5.99c2.61-2.1,4.75-4.62,6.39-7.43l6.38,2.11c1.32,0.44,2.75-0.28,3.18-1.6l1.97-5.95
		c0.44-1.32-0.28-2.75-1.6-3.18l-6.38-2.11c0.36-3.22,0.14-6.53-0.71-9.77l5.99-3.02c1.24-0.63,1.74-2.14,1.12-3.39l-2.82-5.6
		c-0.63-1.24-2.14-1.74-3.39-1.12l-5.99,3.02c-2.1-2.61-4.62-4.75-7.43-6.39l2.11-6.38c0.44-1.32-0.28-2.75-1.6-3.18l-5.95-1.97
		c-1.32-0.44-2.75,0.28-3.18,1.6l-2.11,6.38c-3.22-0.36-6.53-0.14-9.77,0.71l-3.02-5.99c-0.63-1.24-2.14-1.74-3.39-1.12l-5.6,2.82
		c-1.24,0.63-1.74,2.14-1.12,3.39l3.02,5.99c-2.61,2.1-4.75,4.62-6.39,7.43l-6.38-2.11c-1.32-0.44-2.75,0.28-3.18,1.6l-1.97,5.95
		c-0.44,1.32,0.28,2.75,1.6,3.18l6.38,2.11C7.76,78.69,7.97,82,8.82,85.24l-5.99,3.02c-1.24,0.63-1.74,2.14-1.12,3.39l2.82,5.6
		C5.16,98.48,6.67,98.98,7.92,98.35z M19.34,79.94c-0.03-0.26-0.05-0.52-0.06-0.78c-0.18-3.89,1.09-7.73,3.55-10.74
		c0.17-0.2,0.34-0.4,0.52-0.59c1.26-1.4,2.79-2.6,4.57-3.5c1.78-0.9,3.66-1.41,5.53-1.59c0.26-0.03,0.52-0.05,0.78-0.06
		c3.89-0.18,7.73,1.08,10.74,3.55c0.2,0.17,0.4,0.34,0.59,0.52c1.4,1.26,2.6,2.79,3.5,4.57c0.9,1.78,1.41,3.66,1.59,5.53
		c0.03,0.26,0.05,0.52,0.06,0.78c0.18,3.89-1.08,7.73-3.55,10.74c-0.17,0.2-0.34,0.4-0.52,0.59c-1.26,1.4-2.79,2.6-4.57,3.5
		c-1.78,0.9-3.66,1.41-5.53,1.59c-0.26,0.03-0.52,0.05-0.78,0.06c-3.89,0.18-7.73-1.08-10.74-3.55c-0.2-0.17-0.4-0.34-0.59-0.52
		c-1.4-1.26-2.6-2.79-3.5-4.57C20.03,83.69,19.53,81.81,19.34,79.94z"/>
</g>
</svg>
