<?xml version="1.0" encoding="utf-8"?>
<!-- Generator: Adobe Illustrator 23.0.2, SVG Export Plug-In . SVG Version: 6.00 Build 0)  -->
<svg version="1.1" id="Lager_1" xmlns="http://www.w3.org/2000/svg" xmlns:xlink="http://www.w3.org/1999/xlink" x="0px" y="0px"
	 viewBox="0 0 113.58 41.52" style="enable-background:new 0 0 113.58 41.52;" xml:space="preserve">
<style type="text/css">
	.st0{fill:#FFFFFF;}
</style>
<g>
	<g>
		<path class="st0" d="M95.7,0H17.88C8.02,0,0,8.02,0,17.88v5.76c0,9.86,8.02,17.88,17.88,17.88H95.7c9.86,0,17.88-8.02,17.88-17.88
			v-5.76C113.58,8.02,105.56,0,95.7,0z M105.59,23.64c0,5.45-4.43,9.88-9.88,9.88H17.88c-5.45,0-9.88-4.43-9.88-9.88v-5.76
			C8,12.43,12.43,8,17.88,8H95.7c5.45,0,9.88,4.43,9.88,9.88V23.64z"/>
		<path class="st0" d="M90.65,16.49H22.93c-2.35,0-4.27,1.92-4.27,4.27s1.92,4.27,4.27,4.27h67.72c2.35,0,4.27-1.92,4.27-4.27
			S93,16.49,90.65,16.49z"/>
	</g>
</g>
</svg>
