<?xml version="1.0" encoding="utf-8"?>
<!-- Generator: Adobe Illustrator 23.1.1, SVG Export Plug-In . SVG Version: 6.00 Build 0)  -->
<svg version="1.1" id="Lager_1" xmlns="http://www.w3.org/2000/svg" xmlns:xlink="http://www.w3.org/1999/xlink" x="0px" y="0px"
	 viewBox="0 0 121.55 113.86" style="enable-background:new 0 0 121.55 113.86;" xml:space="preserve">
<style type="text/css">
	.st0{fill:#FFFFFF;}
	.st1{fill:#616160;}
</style>
<g>
	<circle class="st0" cx="46.87" cy="26.09" r="26.09"/>
	<path class="st0" d="M94.66,62.57L60.82,96.4l-3.43,16.1c-0.17,0.8,0.54,1.51,1.34,1.34l16.1-3.43l33.83-33.83v0L94.66,62.57
		L94.66,62.57z"/>
	<path class="st0" d="M118.68,54.38l-1.89-1.89c-3.32-3.32-8.3-3.75-11.1-0.94l-5.37,5.37l14.01,14.01l5.32-5.32
		C122.52,62.72,122.1,57.79,118.68,54.38z"/>
	<path class="st0" d="M65.84,55.97c0,0-14.99,13.6-37.89,0c-0.16-0.09-1.54,0.99-1.67,1.08c-1.5,1.03-2.95,2.14-4.34,3.3
		c-4.64,3.87-8.77,8.37-12.18,13.35c-1.74,2.54-3.29,5.21-4.63,7.99c-0.71,1.47-1.35,2.97-1.93,4.5c-0.55,1.45-1.11,2.93-1.61,4.43
		c-0.67,2.01-1.22,4.05-1.46,6.13c-0.4,3.47,0.11,7.12,2.19,10.02c3.21,4.48,9.04,6.03,14.24,6.57c1.4,0.14,2.81,0.23,4.22,0.23
		h26.64c-0.08-1.04-0.02-2.1,0.2-3.15l3.43-16.1l0.62-2.9l2.09-2.09l24.12-24.12C74.54,61.58,70.56,58.3,65.84,55.97z"/>
</g>
</svg>
