<?xml version="1.0" encoding="utf-8"?>
<!-- Generator: Adobe Illustrator 23.0.2, SVG Export Plug-In . SVG Version: 6.00 Build 0)  -->
<svg version="1.1" id="Lager_1" xmlns="http://www.w3.org/2000/svg" xmlns:xlink="http://www.w3.org/1999/xlink" x="0px" y="0px"
	 viewBox="0 0 113.58 113.58" style="enable-background:new 0 0 113.58 113.58;" xml:space="preserve">
<style type="text/css">
	.st0{fill:#FFFFFF;}
</style>
<path class="st0" d="M107.35,50.56H63.03V6.24c0-3.44-2.79-6.24-6.24-6.24h0c-3.44,0-6.24,2.79-6.24,6.24v44.32H6.24
	C2.79,50.56,0,53.35,0,56.79v0c0,3.44,2.79,6.24,6.24,6.24h44.32v44.32c0,3.44,2.79,6.24,6.24,6.24h0c3.44,0,6.24-2.79,6.24-6.24
	V63.03h44.32c3.44,0,6.24-2.79,6.24-6.24v0C113.58,53.35,110.79,50.56,107.35,50.56z"/>
</svg>
