<?xml version="1.0" encoding="utf-8"?>
<!-- Generator: Adobe Illustrator 23.0.2, SVG Export Plug-In . SVG Version: 6.00 Build 0)  -->
<svg version="1.1" id="Lager_1" xmlns="http://www.w3.org/2000/svg" xmlns:xlink="http://www.w3.org/1999/xlink" x="0px" y="0px"
	 viewBox="0 0 71.39 113.39" style="enable-background:new 0 0 71.39 113.39;" xml:space="preserve">
<style type="text/css">
	.st0{fill:#FFFFFF;}
</style>
<path class="st0" d="M62.88,10.73h-7.8V4.68c0-2.58-2.55-4.68-5.67-4.68H21.99c-3.12,0-5.67,2.11-5.67,4.68v6.05h-7.8
	C3.83,10.73,0,13.9,0,17.76v88.6c0,3.86,3.83,7.03,8.51,7.03h54.37c4.68,0,8.51-3.16,8.51-7.03v-88.6
	C71.39,13.9,67.57,10.73,62.88,10.73z M26.48,93.5l7.96-28.94H15.59l28.48-37.45l-8.13,28.7H55.8L26.48,93.5z"/>
</svg>
