<?xml version="1.0" encoding="utf-8"?>
<!-- Generator: Adobe Illustrator 23.0.2, SVG Export Plug-In . SVG Version: 6.00 Build 0)  -->
<svg version="1.1" id="Lager_1" xmlns="http://www.w3.org/2000/svg" xmlns:xlink="http://www.w3.org/1999/xlink" x="0px" y="0px"
	 viewBox="0 0 114.54 113.39" style="enable-background:new 0 0 114.54 113.39;" xml:space="preserve">
<style type="text/css">
	.st0{fill:#FFFFFF;}
</style>
<g>
	<path class="st0" d="M29.36,76.65L0,61.05v30.67c0,1.56,0.84,3,2.21,3.76l31.6,17.66c1.22,0.68,2.72-0.2,2.72-1.59V78.05
		c-0.42,0.04-0.84,0.08-1.26,0.08C33.2,78.12,31.15,77.61,29.36,76.65z"/>
	<path class="st0" d="M111.82,75.19c1.22,0.68,2.71-0.2,2.71-1.6V42.28L80.97,58L111.82,75.19z"/>
	<path class="st0" d="M113.27,36.08C113.27,36.08,113.27,36.08,113.27,36.08c0.29-0.15,0.5-0.36,0.69-0.58
		c0.05-0.06,0.09-0.11,0.13-0.17c0.16-0.23,0.3-0.48,0.37-0.75c0,0,0,0,0,0c0,0,0,0,0,0c0.27-1.01-0.13-2.17-1.19-2.74L57.26,0.76
		c-1.88-1.01-4.14-1.01-6.01,0L23.83,13.23c-1.78,0.94-1.78,3.5,0,4.44l17.11,10.54c1.64,0.87,1.62,3.22-0.03,4.06L1.27,50.51
		c-1.69,0.91-1.69,3.34,0,4.25l30.98,16.45c0.3,0.16,0.63,0.26,0.95,0.37c-0.03-0.01-0.06-0.02-0.09-0.04
		c0.14,0.05,0.28,0.12,0.42,0.16l0,0c1.57,0.45,3.27,0.3,4.74-0.49l58.87-27.57L113.27,36.08z M113.96,35.5
		c0.05-0.06,0.09-0.11,0.13-0.17C114.05,35.39,114.01,35.44,113.96,35.5z M113.27,36.08C113.27,36.08,113.27,36.08,113.27,36.08
		l-7.94,3.72L113.27,36.08C113.27,36.08,113.27,36.08,113.27,36.08z"/>
</g>
</svg>
