<?xml version="1.0" encoding="utf-8"?>
<!-- Generator: Adobe Illustrator 23.0.2, SVG Export Plug-In . SVG Version: 6.00 Build 0)  -->
<svg version="1.1" id="Lager_1" xmlns="http://www.w3.org/2000/svg" xmlns:xlink="http://www.w3.org/1999/xlink" x="0px" y="0px"
	 viewBox="0 0 126.35 113.58" style="enable-background:new 0 0 126.35 113.58;" xml:space="preserve">
<style type="text/css">
	.st0{fill:#FFFFFF;}
</style>
<g>
	<path class="st0" d="M69.26,59.42V36.59c0-2.54-2.06-4.59-4.59-4.59h0c-2.54,0-4.59,2.06-4.59,4.59v22.83v6.53
		c0,1.46,1.19,2.65,2.65,2.65h6.53h16.7c2.54,0,4.59-2.06,4.59-4.59v0c0-2.54-2.06-4.59-4.59-4.59H69.26z"/>
	<path class="st0" d="M73.61,0.14C41.68-2.09,14.81,22.25,12.88,53.24L1.82,53.66c-1.59,0.06-2.4,1.93-1.36,3.13l16.36,18.96
		c0.79,0.92,2.24,0.86,2.96-0.11l14.86-20.16c0.94-1.28-0.01-3.08-1.6-3.02l-10.94,0.42c2.08-25.42,24.2-45.26,50.5-43.6
		c23.69,1.49,42.96,20.77,44.45,44.45c0.66,10.43-2.08,20.2-7.19,28.33c-0.2,0.32-0.4,0.63-0.61,0.94c-0.26,0.4-0.53,0.79-0.8,1.18
		c-0.12,0.17-0.24,0.33-0.36,0.5c-5.21,7.18-12.36,12.85-20.68,16.23c-0.59,0.24-1.18,0.46-1.78,0.67c-0.09,0.03-0.17,0.07-0.26,0.1
		c-2.06,0.72-4.16,1.3-6.29,1.74c-0.09,0.02-0.17,0.04-0.26,0.06c-0.53,0.11-1.07,0.2-1.61,0.28c-0.25,0.04-0.49,0.09-0.74,0.12
		c-0.39,0.06-0.78,0.1-1.17,0.15c-0.42,0.05-0.85,0.11-1.27,0.15c-9.58,0.93-19.49-1.01-28.3-6.08c-2.09-1.2-4.73-0.67-6.11,1.3
		c-1.56,2.23-0.83,5.29,1.53,6.65c10.34,5.95,21.94,8.28,33.2,7.3c0.08,0,0.16,0.01,0.24,0c0.27-0.02,0.54-0.06,0.82-0.09
		c0.09-0.01,0.17-0.02,0.26-0.03c9.17-0.99,17.69-4.16,25.03-9c0.14-0.09,0.28-0.19,0.42-0.29c0.59-0.4,1.18-0.8,1.76-1.22
		c0.26-0.19,0.51-0.38,0.76-0.57c0.47-0.35,0.93-0.7,1.39-1.07c0.27-0.22,0.53-0.44,0.79-0.66c0.44-0.37,0.89-0.74,1.32-1.12
		c0.22-0.19,0.43-0.39,0.64-0.59c0.49-0.44,0.97-0.89,1.44-1.35c0.13-0.13,0.26-0.26,0.39-0.39c0.56-0.56,1.12-1.14,1.66-1.72
		c0.03-0.03,0.05-0.06,0.08-0.09c10.13-11.03,15.98-26.07,14.84-42.43C124.25,24.76,101.59,2.1,73.61,0.14z"/>
</g>
</svg>
