<?xml version="1.0" encoding="utf-8"?>
<!-- Generator: Adobe Illustrator 24.0.1, SVG Export Plug-In . SVG Version: 6.00 Build 0)  -->
<svg version="1.1" id="Lager_1" xmlns="http://www.w3.org/2000/svg" xmlns:xlink="http://www.w3.org/1999/xlink" x="0px" y="0px"
	 viewBox="0 0 137.23 113.39" style="enable-background:new 0 0 137.23 113.39;" xml:space="preserve">
<style type="text/css">
	.st0{fill:#FFFFFF;}
	.st1{fill:#616160;}
</style>
<g>
	<path class="st0" d="M52.3,20.03h10.5c0.39,0,0.7,0.31,0.7,0.7v45.99c0,2.83,2.29,5.12,5.12,5.12c2.83,0,5.12-2.29,5.12-5.12V20.73
		c0-0.39,0.31-0.7,0.7-0.7h10.5c0.96,0,1.46-1.13,0.82-1.84L69.97,0.61c-0.72-0.81-1.99-0.81-2.71,0L51.48,18.19
		C50.84,18.9,51.34,20.03,52.3,20.03z"/>
	<path class="st0" d="M120.29,101.04V44.48c0-3.79-3.1-6.89-6.89-6.89H85.12v8.08h26.56v55.32H77.61v4.21H59.62v-4.21H25.55V45.67
		h26.56v-8.08H23.83c-3.79,0-6.89,3.1-6.89,6.89v56.56H0v5.45c0,3.79,6.51,6.89,14.47,6.89h108.28c7.96,0,14.47-3.1,14.47-6.89
		v-5.45H120.29z"/>
</g>
</svg>
