<?xml version="1.0" encoding="utf-8"?>
<!-- Generator: Adobe Illustrator 23.0.2, SVG Export Plug-In . SVG Version: 6.00 Build 0)  -->
<svg version="1.1" id="Lager_1" xmlns="http://www.w3.org/2000/svg" xmlns:xlink="http://www.w3.org/1999/xlink" x="0px" y="0px"
	 viewBox="0 0 115.9 113.39" style="enable-background:new 0 0 115.9 113.39;" xml:space="preserve">
<style type="text/css">
	.st0{fill:#FFFFFF;}
</style>
<g>
	<path class="st0" d="M114.39,74.8L57.61,51.96c-1.97-0.79-3.93,1.16-3.13,3.13l22.83,56.78c0.64,1.6,2.72,2.03,3.94,0.8l7.99-17.21
		l14.32,14.32c1.09,1.09,2.87,1.09,3.96,0l4.78-4.78c1.09-1.09,1.09-2.87,0-3.96L97.99,86.73l17.21-7.99
		C116.42,77.51,115.99,75.44,114.39,74.8z"/>
	<path class="st0" d="M54.33,93.83H27.84V26.75h67.08v24.49c0,1.81,1.1,3.44,2.78,4.11c2.91,1.17,6.08-0.97,6.08-4.11V21.53
		c0-2.01-1.63-3.64-3.64-3.64H22.62c-2.01,0-3.64,1.63-3.64,3.64v77.52c0,2.01,1.63,3.64,3.64,3.64h31.71
		c3.14,0,5.28-3.17,4.11-6.08C57.76,94.93,56.14,93.83,54.33,93.83z"/>
	<path class="st0" d="M84.8,4.43C84.8,1.98,82.82,0,80.37,0H3.64C1.63,0,0,1.63,0,3.64v76.73c0,2.45,1.98,4.43,4.43,4.43
		s4.43-1.98,4.43-4.43V8.86h71.51C82.82,8.86,84.8,6.88,84.8,4.43z"/>
</g>
</svg>
