<?xml version="1.0" encoding="utf-8"?>
<!-- Generator: Adobe Illustrator 23.0.2, SVG Export Plug-In . SVG Version: 6.00 Build 0)  -->
<svg version="1.1" id="Lager_1" xmlns="http://www.w3.org/2000/svg" xmlns:xlink="http://www.w3.org/1999/xlink" x="0px" y="0px"
	 viewBox="0 0 183.36 113.08" style="enable-background:new 0 0 183.36 113.08;" xml:space="preserve">
<style type="text/css">
	.st0{fill:#FFFFFF;}
</style>
<g id="_x38_w8mbW_2_">
	<g>
		<path class="st0" d="M91.31,113.08c-14.84-0.27-29.28-2.62-43.33-7.3c-13.32-4.43-25.63-10.86-36.9-19.23
			c-3.06-2.27-5.98-4.73-8.96-7.12c-0.45-0.36-0.84-0.81-1.25-1.22c-0.76-0.76-1.27-1.63-0.46-2.61c0.76-0.92,1.77-0.76,2.7-0.28
			c1.48,0.76,2.93,1.58,4.38,2.38c7.42,4.08,15.13,7.49,23.07,10.42c8.62,3.18,17.43,5.72,26.45,7.42
			c6.52,1.23,13.11,2.24,19.71,2.86c6.51,0.61,13.08,0.8,19.63,0.83c9.26,0.04,18.45-1.02,27.57-2.65
			c12.61-2.25,24.85-5.77,36.74-10.52c1.27-0.51,2.63-0.84,3.98-1.03c1.07-0.16,1.91,0.5,2.33,1.5c0.45,1.04,0.3,2.08-0.56,2.85
			c-0.97,0.86-2.01,1.66-3.07,2.4c-7.4,5.11-15.41,9.04-23.81,12.2c-9.93,3.73-20.17,6.29-30.68,7.61
			C103.04,112.31,97.16,112.59,91.31,113.08z"/>
		<path class="st0" d="M7.11,18.77c1.13-0.68,2.05-1.28,3.02-1.81c4.4-2.4,9.02-3.82,14.09-2.95c2.7,0.46,4.92,1.71,6.28,4.19
			c0.57,1.03,1.06,1.11,2.08,0.4c4.48-3.16,9.43-4.96,15-4.84c5.82,0.12,9.91,3.77,10.07,9.58c0.26,9.47,0.23,18.95,0.29,28.43
			c0.01,1.53-0.42,1.89-1.94,1.92c-0.31,0.01-0.63,0.01-0.94,0c-1.52-0.03-1.92-0.39-1.95-1.92c-0.04-2.11-0.01-4.22-0.01-6.34
			c0-6.65,0.02-13.3-0.01-19.96c-0.02-4.17-2.07-6.89-5.53-7.31c-1.33-0.16-2.71-0.16-4.03,0c-3.63,0.43-6.94,1.76-10,3.76
			c-0.9,0.59-1.21,1.28-1.19,2.34c0.12,9.16,0.19,18.33,0.25,27.49c0.01,1.58-0.42,1.91-2.06,1.94c-2.57,0.04-2.78-0.16-2.78-2.72
			c0-8.31,0.04-16.63-0.04-24.94c-0.01-1.49-0.39-3.03-0.87-4.45c-0.74-2.2-2.57-3.22-4.75-3.43c-5.19-0.5-9.86,1.06-14.08,4
			c-0.48,0.33-0.72,1.31-0.73,1.99C7.22,32,7.24,39.87,7.24,47.73c0,0.99,0,1.98,0,2.97c0,2.91-0.26,3.13-3.18,3
			C3,53.66,2.48,53.19,2.41,52.17c-0.02-0.27-0.03-0.54-0.03-0.81c0-11.37,0-22.74,0-34.11c0-1.97,0.58-2.48,2.5-2.41
			c1.18,0.04,1.84,0.52,1.87,1.78C6.76,17.27,6.96,17.91,7.11,18.77z"/>
		<path class="st0" d="M94.03,49.95c-2.09,1.09-3.98,2.2-5.97,3.09c-4.14,1.87-8.51,2.35-12.91,1.33c-4.63-1.07-7.44-4.73-7.47-9.5
			c-0.07-9.39-0.03-18.78-0.01-28.17c0-1.54,0.35-1.83,1.97-1.86c2.04-0.03,2.59,0.31,2.6,1.84c0.04,3.95,0.02,7.91,0.02,11.86
			c0,4.49-0.01,8.99,0.01,13.48c0,0.76,0.11,1.52,0.2,2.27c0.58,4.77,3.87,6.65,8.96,6.29c4.15-0.29,7.84-1.77,11.31-3.98
			c0.98-0.62,1.39-1.34,1.38-2.52c-0.04-8.94-0.02-17.88-0.02-26.83c0-2.22,1.84-3.3,3.78-2.2c0.34,0.19,0.6,0.66,0.73,1.05
			c0.13,0.41,0.08,0.89,0.08,1.34c0,11.28,0,22.56,0,33.84c0,2.19-1.38,3.13-3.43,2.25c-0.41-0.18-0.7-0.85-0.85-1.35
			C94.18,51.49,94.15,50.73,94.03,49.95z"/>
		<path class="st0" d="M164.6,78.54c-4.39,0.38-8.81,0.76-13.23,1.17c-0.89,0.08-1.92,0.46-2.35-0.64c-0.44-1.13,0.38-1.82,1.24-2.4
			c3.92-2.64,8.29-4.07,12.9-4.82c5-0.8,10-0.87,14.99,0.18c0.31,0.06,0.62,0.12,0.92,0.2c3.52,0.93,4.53,1.57,4.25,5.82
			c-0.54,8.13-3.06,15.67-8.02,22.24c-1.15,1.52-2.6,2.83-3.98,4.16c-0.68,0.65-1.56,1.26-2.52,0.49c-0.89-0.71-0.28-1.56-0.02-2.34
			c1.76-5.32,3.56-10.63,5.26-15.98c0.35-1.09,0.4-2.3,0.42-3.46c0.04-2.19-0.82-3.41-3-3.82C169.23,78.92,166.94,78.8,164.6,78.54z
			"/>
		<path class="st0" d="M118.38,54.83c-3.66,0.13-7.16-0.58-10.53-1.94c-0.66-0.27-1.48-0.78-1.68-1.36
			c-0.24-0.71-0.13-1.75,0.26-2.39c0.21-0.34,1.37-0.3,2.02-0.13c4.49,1.21,8.98,2.22,13.68,1.41c4.07-0.7,6.27-3.18,6.22-7.02
			c-0.02-1.78-0.76-3.22-2.27-4.03c-2.09-1.11-4.3-2.02-6.49-2.93c-3.14-1.31-6.47-2.13-9.26-4.25c-4.15-3.15-4.46-9.28-2.28-12.79
			c2.34-3.78,5.99-5.29,10.21-5.61c3.72-0.29,7.34,0.41,10.85,1.63c1.58,0.55,2.18,1.75,1.54,3.27c-0.16,0.39-0.98,0.8-1.43,0.74
			c-3.01-0.41-6-1.14-9.02-1.37c-1.82-0.14-3.78,0.18-5.52,0.76c-2.5,0.83-3.49,3-3.51,5.53c-0.02,2.25,1.01,4.07,3.08,4.98
			c3.73,1.65,7.55,3.11,11.32,4.69c2.43,1.02,4.71,2.26,6.07,4.68c3.15,5.59,0.38,12.72-5.86,14.98c-1.18,0.43-2.41,0.74-3.65,0.93
			C120.9,54.8,119.63,54.76,118.38,54.83z"/>
		<path class="st0" d="M171.52,54.51c-5.07,0.06-9.32-0.92-12.88-4.01c-1.83-1.6-3.19-3.58-3.98-5.83
			c-2.37-6.75-2.52-13.57-0.03-20.31c2.2-5.95,6.72-9.09,12.91-10.03c3.76-0.58,7.42-0.24,11.02,0.94c1.29,0.42,1.88,1.31,1.84,2.64
			c-0.04,1.18-0.57,1.61-1.74,1.42c-1.59-0.26-3.18-0.56-4.78-0.78c-3.36-0.48-6.67-0.16-9.75,1.28c-3.51,1.65-5.15,4.76-5.79,8.43
			c-0.7,4-0.71,8.03-0.01,12.04c1.06,6.15,5.47,9.82,11.75,9.91c2.99,0.04,5.91-0.23,8.78-1.07c1.34-0.39,2.18,0.33,2.04,1.73
			c-0.12,1.23-0.9,1.9-1.99,2.3C176.39,54.08,173.77,54.68,171.52,54.51z"/>
		<path class="st0" d="M139.95,34.26c0-5.75,0-11.49,0-17.24c0-1.88,0.28-2.17,2.05-2.18c2.09-0.02,2.53,0.33,2.53,2.19
			c0.01,11.49,0.02,22.99-0.03,34.48c0,0.69-0.44,1.86-0.89,1.97c-1.03,0.25-2.2,0.08-3.27-0.14c-0.23-0.05-0.38-1.03-0.38-1.58
			C139.94,45.94,139.95,40.1,139.95,34.26z"/>
		<path class="st0" d="M138.88,3.33c0.01-2.22,1.17-3.35,3.45-3.33c2.1,0.02,3.32,1.33,3.29,3.55c-0.02,1.89-1.45,3.33-3.32,3.36
			C140.1,6.95,138.87,5.65,138.88,3.33z"/>
	</g>
</g>
</svg>
