<?xml version="1.0" encoding="utf-8"?>
<!-- Generator: Adobe Illustrator 23.1.1, SVG Export Plug-In . SVG Version: 6.00 Build 0)  -->
<svg version="1.1" id="Lager_1" xmlns="http://www.w3.org/2000/svg" xmlns:xlink="http://www.w3.org/1999/xlink" x="0px" y="0px"
	 viewBox="0 0 137.29 113.39" style="enable-background:new 0 0 137.29 113.39;" xml:space="preserve">
<style type="text/css">
	.st0{fill:#FFFFFF;}
	.st1{fill:#616160;}
</style>
<g>
	<path class="st0" d="M137.2,85.02c-0.17-1.66-0.55-3.34-0.99-5.02c-0.97-3.73-1.77-7.33-2.74-11.06
		c-2.71-10.4-5.42-20.81-8.12-31.21c-2.28-8.77-4.57-17.55-6.85-26.32c-0.45-1.72-0.71-2.71-1.34-5.17
		c-0.76-2.93-2.64-5.75-5.88-5.96c-4.51-0.3-9.32-0.13-13.85-0.13c-9.98,0-19.97,0-29.96,0c-9.88,0-19.76,0-29.64,0
		c-3.42,0-7.03-0.17-10.76-0.14c-4.38,0.04-7.27,1.6-8.36,6.06c-1.23,5.04-2.47,10.07-3.7,15.11c-2.56,10.47-5.13,20.95-7.69,31.42
		c-2.2,8.98-3.91,18-6.11,26.99c-1.04,4.27-2.02,8.26-0.15,12.55c0.79,1.82,1.99,3.48,3.59,4.62c1.96,1.39,4.1,1.67,6.42,1.54
		c2.59-0.15,5.25-0.04,7.87-0.04c9.16,0,18.32,0,27.48,0c2.91,0,5.81,0,8.72,0l-2.38,12.16c0,1.64,1.32,2.98,2.93,2.98H81.6
		c1.61,0,2.93-1.34,2.93-2.98l-2.38-12.16c9.41,0,18.83,0,28.24,0c3.42,0,6.85,0,10.27,0c5.12,0,10.14,0.45,13.9-3.93
		C137.05,91.46,137.53,88.29,137.2,85.02z M127.14,88.82H9.08c-3.14,0-5.71-2.57-5.71-5.71L20.5,7.41c0.82-2.94,2.57-5.71,5.71-5.71
		H110c3.14,0,4.79,2.61,5.71,5.71l17.14,75.69C132.85,86.25,130.28,88.82,127.14,88.82z"/>
	<path class="st0" d="M45.02,53.05h-26c-1.57,0-2.86,1.29-2.86,2.86l-5.18,24.04c0,1.57,1.29,2.86,2.86,2.86h29.75
		c1.57,0,2.86-1.29,2.86-2.86l1.43-24.04C47.87,54.34,46.59,53.05,45.02,53.05z"/>
	<path class="st0" d="M81.85,53.05H54.36c-1.57,0-2.86,1.29-2.86,2.86l-1.13,24.04c0,1.57,1.29,2.86,2.86,2.86h29.75
		c1.57,0,2.86-1.29,2.86-2.86l-1.13-24.04C84.71,54.34,83.42,53.05,81.85,53.05z"/>
	<path class="st0" d="M91.2,53.05c-1.57,0-2.86,1.29-2.86,2.86l1.43,24.04c0,1.57,1.29,2.86,2.86,2.86h29.75
		c1.57,0,2.86-1.29,2.86-2.86l-5-24.04c0-1.57-1.29-2.86-2.86-2.86H91.2z"/>
	<path class="st0" d="M47.52,26.28H23.83c-1.57,0-2.86,1.29-2.86,2.86l-4.28,17.91c0,1.57,1.29,2.86,2.86,2.86h26.9
		c1.57,0,2.86-1.29,2.86-2.86l1.07-17.91C50.37,27.56,49.09,26.28,47.52,26.28z"/>
	<path class="st0" d="M54.89,49.9h25.89c1.57,0,2.86-1.29,2.86-2.86l-1.25-17.91c0-1.57-1.29-2.86-2.86-2.86H56.14
		c-1.57,0-2.86,1.29-2.86,2.86l-1.25,17.91C52.04,48.62,53.32,49.9,54.89,49.9z"/>
	<path class="st0" d="M112.2,26.28H88.7c-1.57,0-2.86,1.29-2.86,2.86l1.25,17.91c0,1.57,1.29,2.86,2.86,2.86h26
		c1.57,0,2.86-1.29,2.86-2.86l-3.75-17.91C115.05,27.56,113.77,26.28,112.2,26.28z"/>
	<path class="st0" d="M25.79,24.02h22.61c1.57,0,2.86-1.29,2.86-2.86l0.77-13.45c0-1.57-1.29-2.86-2.86-2.86H28.83
		c-1.57,0-2.86,1.29-2.86,2.86l-3.03,13.45C22.94,22.73,24.22,24.02,25.79,24.02z"/>
	<path class="st0" d="M56.68,24.02h22.49c1.57,0,2.86-1.29,2.86-2.86L81.14,7.71c0-1.57-1.29-2.86-2.86-2.86H57.57
		c-1.57,0-2.86,1.29-2.86,2.86l-0.89,13.45C53.82,22.73,55.11,24.02,56.68,24.02z"/>
	<path class="st0" d="M88.07,24.02h22.34c1.57,0,2.86-1.29,2.86-2.86l-2.86-13.45c0-1.57-1.29-2.86-2.86-2.86H87.27
		c-1.57,0-2.86,1.29-2.86,2.86l0.8,13.45C85.21,22.73,86.5,24.02,88.07,24.02z"/>
</g>
</svg>
