<?xml version="1.0" encoding="utf-8"?>
<!-- Generator: Adobe Illustrator 23.1.1, SVG Export Plug-In . SVG Version: 6.00 Build 0)  -->
<svg version="1.1" id="Lager_1" xmlns="http://www.w3.org/2000/svg" xmlns:xlink="http://www.w3.org/1999/xlink" x="0px" y="0px"
	 viewBox="0 0 113.39 113.39" style="enable-background:new 0 0 113.39 113.39;" xml:space="preserve">
<style type="text/css">
	.st0{fill:#FFFFFF;}
	.st1{fill:#616160;}
</style>
<g>
	<path class="st0" d="M83.99,29.4v74.19H9.8V29.4H83.99 M0,23.63v85.73c0,2.22,1.8,4.03,4.03,4.03h85.73c2.22,0,4.03-1.8,4.03-4.03
		V23.63c0-2.22-1.8-4.03-4.03-4.03H4.03C1.8,19.6,0,21.4,0,23.63z"/>
	<path class="st0" d="M109.36,0H23.63C21.4,0,19.6,1.8,19.6,4.03V9.8h9.8h12.28h61.91v61.91v12.28v9.8h5.77
		c2.22,0,4.03-1.8,4.03-4.03V4.03C113.39,1.8,111.58,0,109.36,0z"/>
</g>
</svg>
