<?xml version="1.0" encoding="utf-8"?>
<!-- Generator: Adobe Illustrator 23.0.2, SVG Export Plug-In . SVG Version: 6.00 Build 0)  -->
<svg version="1.1" id="Lager_1" xmlns="http://www.w3.org/2000/svg" xmlns:xlink="http://www.w3.org/1999/xlink" x="0px" y="0px"
	 viewBox="0 0 113.08 113.08" style="enable-background:new 0 0 113.08 113.08;" xml:space="preserve">
<style type="text/css">
	.st0{fill:#FFFFFF;}
</style>
<g>
	<path class="st0" d="M5.91,40.33c3.26,0,5.91-2.65,5.91-5.91V20.87l23.16,23.16l9.05-9.05L20.87,11.82h13.56
		c3.26,0,5.91-2.64,5.91-5.91c0-3.26-2.65-5.91-5.91-5.91H5C2.24,0,0,2.24,0,5v29.42C0,37.69,2.65,40.33,5.91,40.33z"/>
	<path class="st0" d="M108.08,0H78.66c-3.26,0-5.91,2.65-5.91,5.91c0,3.26,2.65,5.91,5.91,5.91h13.56L69.06,34.97l9.05,9.05
		l23.16-23.16v13.56c0,3.26,2.65,5.91,5.91,5.91s5.91-2.65,5.91-5.91V5C113.08,2.24,110.84,0,108.08,0z"/>
	<path class="st0" d="M107.17,72.75c-3.26,0-5.91,2.64-5.91,5.91v13.56L78.11,69.06l-9.05,9.05l23.16,23.16H78.66
		c-3.26,0-5.91,2.64-5.91,5.91c0,3.26,2.65,5.91,5.91,5.91h29.42c2.76,0,5-2.24,5-5V78.66C113.08,75.39,110.44,72.75,107.17,72.75z"
		/>
	<path class="st0" d="M34.97,69.06L11.82,92.22V78.66c0-3.26-2.65-5.91-5.91-5.91S0,75.39,0,78.66v29.42c0,2.76,2.24,5,5,5h29.42
		c3.26,0,5.91-2.65,5.91-5.91c0-3.26-2.65-5.91-5.91-5.91H20.87l23.16-23.16L34.97,69.06z"/>
</g>
</svg>
