<?xml version="1.0" encoding="utf-8"?>
<!-- Generator: Adobe Illustrator 23.0.2, SVG Export Plug-In . SVG Version: 6.00 Build 0)  -->
<svg version="1.1" id="Lager_1" xmlns="http://www.w3.org/2000/svg" xmlns:xlink="http://www.w3.org/1999/xlink" x="0px" y="0px"
	 viewBox="0 0 93.53 113.58" style="enable-background:new 0 0 93.53 113.58;" xml:space="preserve">
<style type="text/css">
	.st0{fill:#FFFFFF;}
</style>
<g>
	<g>
		<circle class="st0" cx="46.87" cy="26.09" r="26.09"/>
		<path class="st0" d="M1.58,90.63c-0.67,2.01-1.22,4.05-1.46,6.13c-0.4,3.47,0.11,7.12,2.19,10.02c3.21,4.48,9.04,6.03,14.24,6.56
			c1.4,0.14,2.81,0.23,4.22,0.23h55.06c0,0,23.74,1.25,16.24-22.9c0,0-7.08-25.26-26.23-34.7c0,0-14.99,13.6-37.89,0
			c-0.16-0.09-1.54,0.99-1.67,1.08c-1.5,1.03-2.95,2.14-4.34,3.3c-4.64,3.87-8.77,8.37-12.18,13.35c-1.74,2.54-3.29,5.21-4.63,7.99
			c-0.71,1.47-1.35,2.97-1.93,4.5C2.65,87.65,2.08,89.13,1.58,90.63z"/>
	</g>
</g>
</svg>
