<?xml version="1.0" encoding="utf-8"?>
<!-- Generator: Adobe Illustrator 23.0.2, SVG Export Plug-In . SVG Version: 6.00 Build 0)  -->
<svg version="1.1" id="Lager_1" xmlns="http://www.w3.org/2000/svg" xmlns:xlink="http://www.w3.org/1999/xlink" x="0px" y="0px"
	 viewBox="0 0 106.87 106.87" style="enable-background:new 0 0 106.87 106.87;" xml:space="preserve">
<style type="text/css">
	.st0{fill:#FFFFFF;}
</style>
<g>
	<path class="st0" d="M65.31,15.57L91.3,41.56c1.31,1.31,3.42,1.31,4.73,0l9.87-9.87c1.31-1.31,1.31-3.42,0-4.73L79.9,0.98
		c-1.31-1.31-3.42-1.3-4.73,0l-9.87,9.87C64,12.15,64,14.27,65.31,15.57z"/>
	<path class="st0" d="M16.15,40.66c0,0-12.3,43-16.11,56.55c-0.31,1.1,1.05,1.88,1.86,1.07l32.94-32.94
		c-2.01-4.69-1.08-10.35,2.82-14.14c4.85-4.72,12.9-4.72,17.75-0.01c5.1,4.96,5.15,13.12,0.13,18.13
		c-3.79,3.79-9.37,4.68-14.02,2.69L8.58,104.96c-0.81,0.81-0.03,2.17,1.07,1.86c13.56-3.81,56.56-16.11,56.56-16.11
		c1.8-0.52,3.29-1.8,4.07-3.5l14.86-32.56c1.11-2.44,0.59-5.31-1.3-7.21L59.42,23.03c-1.9-1.9-4.77-2.41-7.21-1.3L19.66,36.59
		C17.95,37.37,16.67,38.86,16.15,40.66z"/>
</g>
</svg>
