<?xml version="1.0" encoding="utf-8"?>
<!-- Generator: Adobe Illustrator 23.0.2, SVG Export Plug-In . SVG Version: 6.00 Build 0)  -->
<svg version="1.1" id="Lager_1" xmlns="http://www.w3.org/2000/svg" xmlns:xlink="http://www.w3.org/1999/xlink" x="0px" y="0px"
	 viewBox="0 0 115.08 113.39" style="enable-background:new 0 0 115.08 113.39;" xml:space="preserve">
<style type="text/css">
	.st0{fill:#FFFFFF;}
</style>
<g>
	<path class="st0" d="M113.29,67.57L45.87,40.46c-2.34-0.94-4.66,1.38-3.72,3.72l27.11,67.41c0.77,1.9,3.23,2.41,4.68,0.96
		l9.49-20.43l17.01,17.01c1.3,1.3,3.41,1.3,4.71,0l5.68-5.68c1.3-1.3,1.3-3.41,0-4.71L93.81,81.74l20.43-9.49
		C115.69,70.79,115.19,68.33,113.29,67.57z"/>
	<path class="st0" d="M41.97,90.17H10.52V10.52h79.65V39.6c0,2.15,1.31,4.08,3.3,4.88c3.46,1.39,7.22-1.15,7.22-4.88V4.32
		c0-2.39-1.94-4.32-4.32-4.32H4.32C1.94,0,0,1.94,0,4.32v92.04c0,2.39,1.94,4.32,4.32,4.32h37.65c3.73,0,6.27-3.77,4.88-7.22
		C46.05,91.47,44.12,90.17,41.97,90.17z"/>
</g>
</svg>
