<?xml version="1.0" encoding="utf-8"?>
<!-- Generator: Adobe Illustrator 23.0.2, SVG Export Plug-In . SVG Version: 6.00 Build 0)  -->
<svg version="1.1" id="Lager_1" xmlns="http://www.w3.org/2000/svg" xmlns:xlink="http://www.w3.org/1999/xlink" x="0px" y="0px"
	 viewBox="0 0 113.39 113.39" style="enable-background:new 0 0 113.39 113.39;" xml:space="preserve">
<style type="text/css">
	.st0{fill:#FFFFFF;}
</style>
<path class="st0" d="M51.32,8.8c-7.03-7.03-16.68-9.85-25.81-8.45c-1.37,0.21-1.91,1.9-0.93,2.88l16.2,16.2l-6.22,15.13l-15.13,6.22
	l-16.2-16.2c-0.98-0.98-2.67-0.44-2.88,0.93c-1.39,9.13,1.42,18.78,8.45,25.81c8.67,8.67,21.3,10.93,32.05,6.8l48.49,51.14
	c5.5,5.5,14.42,5.5,19.92,0c5.5-5.5,5.5-14.42,0-19.92L58.12,40.85C62.25,30.1,59.98,17.47,51.32,8.8z M103.28,103.28
	c-2.67,2.67-6.99,2.67-9.66,0c-2.67-2.67-2.67-6.99,0-9.66c2.67-2.67,6.99-2.67,9.66,0S105.95,100.62,103.28,103.28z"/>
</svg>
