<?xml version="1.0" encoding="utf-8"?>
<!-- Generator: Adobe Illustrator 24.0.1, SVG Export Plug-In . SVG Version: 6.00 Build 0)  -->
<svg version="1.1" id="Lager_1" xmlns="http://www.w3.org/2000/svg" xmlns:xlink="http://www.w3.org/1999/xlink" x="0px" y="0px"
	 viewBox="0 0 50.66 170.08" style="enable-background:new 0 0 50.66 170.08;" xml:space="preserve">
<style type="text/css">
	.st0{fill:#FFFFFF;}
	.st1{fill:#616160;}
</style>
<g>
	<path class="st0" d="M44.82,4.71c0-2.6-2.11-4.71-4.71-4.71H10.55c-2.6,0-4.71,2.11-4.71,4.71v22.54h38.98V4.71z"/>
	<path class="st0" d="M16.41,147.92h4v22.04c1.64,0.07,3.28,0.12,4.93,0.12c1.65,0,3.29-0.06,4.93-0.12v-22.04h4v-31.21H16.41
		V147.92z"/>
	<path class="st0" d="M47.49,33.39H3.17C1.42,33.39,0,34.81,0,36.56v70.84c0,1.75,1.42,3.17,3.17,3.17h44.32
		c1.75,0,3.17-1.42,3.17-3.17V36.56C50.66,34.81,49.24,33.39,47.49,33.39z M19.62,90.02l4.93-17.92H12.88l17.64-23.19l-5.04,17.77
		h12.3L19.62,90.02z"/>
</g>
</svg>
