<?xml version="1.0" encoding="utf-8"?>
<!-- Generator: Adobe Illustrator 23.1.1, SVG Export Plug-In . SVG Version: 6.00 Build 0)  -->
<svg version="1.1" id="Lager_1" xmlns="http://www.w3.org/2000/svg" xmlns:xlink="http://www.w3.org/1999/xlink" x="0px" y="0px"
	 viewBox="0 0 115.17 113.58" style="enable-background:new 0 0 115.17 113.58;" xml:space="preserve">
<style type="text/css">
	.st0{fill:#FFFFFF;}
	.st1{fill:#616160;}
</style>
<g>
	
		<ellipse transform="matrix(0.7071 -0.7071 0.7071 0.7071 -4.7248 40.7827)" class="st0" cx="46.87" cy="26.09" rx="26.09" ry="26.09"/>
	<path class="st0" d="M110.02,82.93H94.8V67.7c0-2.84-2.3-5.14-5.14-5.14s-5.14,2.3-5.14,5.14v15.23H69.28
		c-2.84,0-5.14,2.3-5.14,5.14v0c0,2.84,2.3,5.14,5.14,5.14h15.23v15.23c0,2.84,2.3,5.14,5.14,5.14s5.14-2.3,5.14-5.14V93.21h15.23
		c2.84,0,5.14-2.3,5.14-5.14v0C115.17,85.23,112.86,82.93,110.02,82.93z"/>
	<path class="st0" d="M76.51,101.21h-7.23c-7.25,0-13.14-5.9-13.14-13.14s5.9-13.14,13.14-13.14h7.23V67.7
		c0-1.19,0.17-2.33,0.47-3.43c-3.14-3.26-6.83-6.18-11.14-8.3c0,0-14.99,13.6-37.89,0c-0.16-0.09-1.54,0.99-1.67,1.08
		c-1.5,1.03-2.95,2.14-4.34,3.3c-4.64,3.87-8.77,8.37-12.18,13.35c-1.74,2.54-3.29,5.21-4.63,7.99c-0.71,1.47-1.35,2.97-1.93,4.5
		c-0.55,1.45-1.11,2.93-1.61,4.43c-0.67,2.01-1.22,4.05-1.46,6.13c-0.4,3.47,0.11,7.12,2.19,10.02c3.21,4.48,9.04,6.03,14.24,6.57
		c1.4,0.14,2.81,0.23,4.22,0.23h55.06c0,0,0.66,0.03,1.71-0.02c-0.67-1.57-1.03-3.3-1.03-5.11V101.21z"/>
</g>
</svg>
