<?xml version="1.0" encoding="utf-8"?>
<!-- Generator: Adobe Illustrator 23.0.2, SVG Export Plug-In . SVG Version: 6.00 Build 0)  -->
<svg version="1.1" id="Lager_1" xmlns="http://www.w3.org/2000/svg" xmlns:xlink="http://www.w3.org/1999/xlink" x="0px" y="0px"
	 viewBox="0 0 65.36 113.39" style="enable-background:new 0 0 65.36 113.39;" xml:space="preserve">
<style type="text/css">
	.st0{fill:#FFFFFF;}
</style>
<g>
	<path class="st0" d="M60.04,0H5.32C2.39,0,0,2.39,0,5.32v102.74c0,2.93,2.39,5.32,5.32,5.32h54.72c2.93,0,5.32-2.39,5.32-5.32V5.32
		C65.36,2.39,62.97,0,60.04,0z M27.28,10.04h10.81v1.93H27.28V10.04z M32.68,105.17c-2.28,0-4.12-1.85-4.12-4.12
		c0-2.28,1.85-4.12,4.12-4.12c2.28,0,4.12,1.85,4.12,4.12C36.81,103.33,34.96,105.17,32.68,105.17z M58.16,90.55H7.2V19.47h50.95
		V90.55z"/>
</g>
</svg>
