<?xml version="1.0" encoding="utf-8"?>
<!-- Generator: Adobe Illustrator 23.0.2, SVG Export Plug-In . SVG Version: 6.00 Build 0)  -->
<svg version="1.1" id="Lager_1" xmlns="http://www.w3.org/2000/svg" xmlns:xlink="http://www.w3.org/1999/xlink" x="0px" y="0px"
	 viewBox="0 0 48.61 113.58" style="enable-background:new 0 0 48.61 113.58;" xml:space="preserve">
<style type="text/css">
	.st0{fill:#FFFFFF;}
</style>
<g>
	<path class="st0" d="M28.81,72.97V42.93c0-2.48-2.03-4.5-4.5-4.5c-2.48,0-4.5,2.03-4.5,4.5v30.04
		c-7.19,1.97-12.48,8.54-12.48,16.36c0,9.38,7.6,16.98,16.98,16.98c9.38,0,16.98-7.6,16.98-16.98C41.28,81.51,36,74.95,28.81,72.97z
		"/>
	<path class="st0" d="M35.8,67.86V11.49C35.8,5.16,30.64,0,24.31,0S12.81,5.16,12.81,11.49v56.36C5,72.07,0,80.36,0,89.28
		c0,13.4,10.9,24.31,24.31,24.31s24.31-10.9,24.31-24.31C48.61,80.36,43.62,72.07,35.8,67.86z M24.31,110.21
		c-11.54,0-20.93-9.39-20.93-20.93c0-7.99,4.65-15.4,11.86-18.87l0.96-0.46V11.49c0-4.48,3.64-8.12,8.12-8.12
		c4.48,0,8.12,3.64,8.12,8.12v58.46l0.96,0.46c7.2,3.47,11.86,10.88,11.86,18.87C45.24,100.82,35.85,110.21,24.31,110.21z"/>
</g>
</svg>
