<?xml version="1.0" encoding="utf-8"?>
<!-- Generator: Adobe Illustrator 23.1.1, SVG Export Plug-In . SVG Version: 6.00 Build 0)  -->
<svg version="1.1" id="Lager_1" xmlns="http://www.w3.org/2000/svg" xmlns:xlink="http://www.w3.org/1999/xlink" x="0px" y="0px"
	 viewBox="0 0 121.25 113.39" style="enable-background:new 0 0 121.25 113.39;" xml:space="preserve">
<style type="text/css">
	.st0{fill:#FFFFFF;}
	.st1{fill:#616160;}
</style>
<g>
	<g>
		<path class="st0" d="M94.13,32.59c8.02-1.06,14.21-7.91,14.21-16.22C108.34,7.33,101.01,0,91.96,0c-5.69,0-10.7,2.91-13.64,7.32
			C87.23,12.44,93.41,21.78,94.13,32.59z"/>
	</g>
	<g>
		<path class="st0" d="M29.41,32.75c0.59,0,1.17-0.03,1.74-0.09c0.62-9.64,5.58-18.12,12.95-23.49C41.43,3.74,35.87,0,29.41,0
			c-9.04,0-16.38,7.33-16.38,16.38S20.37,32.75,29.41,32.75z"/>
	</g>
	<g>
		<path class="st0" d="M79.7,61.57c0,0-13.48,12.23-34.08,0c-0.14-0.08-1.38,0.89-1.5,0.97c-1.35,0.92-2.65,1.92-3.91,2.97
			c-4.17,3.48-7.88,7.52-10.95,12.01c-1.57,2.29-2.96,4.69-4.16,7.19c-0.64,1.32-1.21,2.67-1.73,4.05c-0.49,1.31-1,2.64-1.45,3.99
			c-0.6,1.8-1.09,3.65-1.31,5.51c-0.36,3.12,0.1,6.4,1.97,9.01c2.88,4.03,8.13,5.43,12.81,5.9c1.26,0.13,2.53,0.21,3.79,0.21h49.52
			c0,0,21.35,1.12,14.61-20.6C103.3,92.78,96.93,70.06,79.7,61.57z"/>
	</g>
	<g>
		
			<ellipse transform="matrix(0.4472 -0.8944 0.8944 0.4472 3.595 75.2059)" class="st0" cx="62.64" cy="34.69" rx="23.47" ry="23.47"/>
	</g>
	<g>
		<path class="st0" d="M35.03,59.29c1.48-1.23,2.9-2.32,4.34-3.31c-3.85-4.2-6.58-9.44-7.71-15.25c-0.74,0.07-1.49,0.11-2.25,0.11
			c-5.16,0-9.94-1.61-13.89-4.34c-0.6,0.44-1.19,0.9-1.76,1.37c-2.91,2.43-5.5,5.25-7.64,8.38c-1.09,1.59-2.07,3.27-2.9,5.01
			C2.77,52.19,2.37,53.13,2,54.09c-0.34,0.91-0.7,1.84-1.01,2.78c-0.42,1.26-0.76,2.54-0.91,3.85c-0.25,2.18,0.07,4.47,1.37,6.29
			c2.01,2.81,5.67,3.79,8.94,4.12c0.88,0.09,1.77,0.15,2.65,0.15h10.73C26.99,66.87,30.76,62.85,35.03,59.29z"/>
	</g>
	<g>
		<path class="st0" d="M120.33,56.9c0,0-3.9-13.91-14.27-20.54c-3.57,2.52-7.83,4.11-12.45,4.42c-1.12,5.72-3.79,10.88-7.55,15.05
			c6.79,4.04,11.97,9.78,15.8,15.45h8.28C110.14,71.27,125.03,72.06,120.33,56.9z"/>
	</g>
</g>
</svg>
