<?xml version="1.0" encoding="utf-8"?>
<!-- Generator: Adobe Illustrator 23.0.2, SVG Export Plug-In . SVG Version: 6.00 Build 0)  -->
<svg version="1.1" id="Lager_1" xmlns="http://www.w3.org/2000/svg" xmlns:xlink="http://www.w3.org/1999/xlink" x="0px" y="0px"
	 viewBox="0 0 98.75 113.39" style="enable-background:new 0 0 98.75 113.39;" xml:space="preserve">
<style type="text/css">
	.st0{fill:#FFFFFF;}
</style>
<g>
	<path class="st0" d="M18.72,113.39H4.12c-2.27,0-4.12-1.84-4.12-4.12V66.48c0-2.27,1.84-4.12,4.12-4.12h14.61
		c2.27,0,4.12,1.84,4.12,4.12v42.79C22.84,111.54,21,113.39,18.72,113.39z"/>
	<path class="st0" d="M56.68,113.39H42.07c-2.27,0-4.12-1.84-4.12-4.12v-71c0-2.27,1.84-4.12,4.12-4.12h14.61
		c2.27,0,4.12,1.84,4.12,4.12v71C60.8,111.54,58.95,113.39,56.68,113.39z"/>
	<path class="st0" d="M94.64,113.39H80.03c-2.27,0-4.12-1.84-4.12-4.12V4.12c0-2.27,1.84-4.12,4.12-4.12h14.61
		c2.27,0,4.12,1.84,4.12,4.12v105.15C98.75,111.54,96.91,113.39,94.64,113.39z"/>
</g>
</svg>
