<?xml version="1.0" encoding="utf-8"?>
<!-- Generator: Adobe Illustrator 23.0.2, SVG Export Plug-In . SVG Version: 6.00 Build 0)  -->
<svg version="1.1" id="Lager_1" xmlns="http://www.w3.org/2000/svg" xmlns:xlink="http://www.w3.org/1999/xlink" x="0px" y="0px"
	 viewBox="0 0 114.85 113.58" style="enable-background:new 0 0 114.85 113.58;" xml:space="preserve">
<style type="text/css">
	.st0{fill:#FFFFFF;}
</style>
<g>
	<path class="st0" d="M108.64,81.05c-3.43,0-6.21,2.78-6.21,6.21v11.84c0,1.15-0.93,2.08-2.08,2.08H14.49
		c-1.15,0-2.08-0.93-2.08-2.08V87.25c0-3.43-2.78-6.21-6.21-6.21h0C2.78,81.05,0,83.83,0,87.25v21.08c0,2.9,2.35,5.25,5.25,5.25
		h104.34c2.9,0,5.25-2.35,5.25-5.25V87.25C114.85,83.83,112.07,81.05,108.64,81.05z"/>
	<path class="st0" d="M55.78,69.1c0.88,0.98,2.41,0.98,3.29,0l19.15-21.33c0.77-0.86,0.16-2.24-1-2.24H64.48
		c-0.47,0-0.85-0.38-0.85-0.85V6.21c0-3.43-2.78-6.21-6.21-6.21c-3.43,0-6.21,2.78-6.21,6.21v38.47c0,0.47-0.38,0.85-0.85,0.85
		H37.63c-1.16,0-1.77,1.37-1,2.24L55.78,69.1z"/>
</g>
</svg>
