<?xml version="1.0" encoding="utf-8"?>
<!-- Generator: Adobe Illustrator 23.0.2, SVG Export Plug-In . SVG Version: 6.00 Build 0)  -->
<svg version="1.1" id="Lager_1" xmlns="http://www.w3.org/2000/svg" xmlns:xlink="http://www.w3.org/1999/xlink" x="0px" y="0px"
	 viewBox="0 0 113.56 113.39" style="enable-background:new 0 0 113.56 113.39;" xml:space="preserve">
<style type="text/css">
	.st0{fill:#FFFFFF;}
</style>
<g>
	<path class="st0" d="M7.42,87.5C5,84.53,0.61,74.14,0.26,70.53c6.4-2.49,10.11-7.09,9.83-14.08C9.84,50,6.12,45.82,0,43.59
		c1.37-6.09,3.71-11.78,6.94-17.13c6.51,2.95,12.49,2.32,17.34-3.05c4.32-4.79,4.55-10.33,1.74-16.18C31.3,3.91,37,1.55,43.11,0.06
		c2.52,6.82,7.28,10.66,14.64,10.19C64.12,9.84,68.17,6.06,70.27,0c6.11,1.43,11.82,3.79,17.14,7.07
		c-2.84,6.15-2.48,11.92,2.37,16.77c4.83,4.83,10.6,5.28,16.7,2.43c2.21,2.49,6.59,13.03,7.07,17.04
		c-6.63,2.6-10.24,7.27-9.96,14.59c0.2,5.34,3.5,9.44,9.97,12.39c-1.44,6.05-3.8,11.72-7.09,17c-6.27-2.71-11.91-2.03-16.76,2.8
		c-3.69,3.68-5.3,9.94-2.25,16.18c-5.31,3.27-10.98,5.63-17.04,7.05c-2.59-6.37-7.16-9.96-14.02-9.7
		c-6.33,0.23-10.52,3.79-12.84,9.77c-6.05-1.38-11.73-3.72-17.07-6.95c2.67-6.16,2.09-11.84-2.75-16.54
		C18.99,85.29,13.37,84.85,7.42,87.5z M56.81,84.44c15.37-0.02,27.78-12.43,27.77-27.77c-0.02-15.3-12.42-27.71-27.72-27.71
		c-15.4-0.01-27.88,12.46-27.83,27.82C29.06,72.05,41.53,84.46,56.81,84.44z"/>
</g>
</svg>
