<?xml version="1.0" encoding="utf-8"?>
<!-- Generator: Adobe Illustrator 23.1.1, SVG Export Plug-In . SVG Version: 6.00 Build 0)  -->
<svg version="1.1" id="Lager_1" xmlns="http://www.w3.org/2000/svg" xmlns:xlink="http://www.w3.org/1999/xlink" x="0px" y="0px"
	 viewBox="0 0 95.67 103.15" style="enable-background:new 0 0 95.67 103.15;" xml:space="preserve">
<style type="text/css">
	.st0{fill:#FFFFFF;}
	.st1{fill:#616160;}
</style>
<g>
	<path class="st0" d="M75.01,24.83v-3.02h14.43c3.44,0,6.24-2.79,6.24-6.24s-2.79-6.24-6.24-6.24H75.01V6.32
		c0-3.49-2.83-6.32-6.32-6.32h-9.91c-3.49,0-6.32,2.83-6.32,6.32v3.02H6.24C2.79,9.34,0,12.13,0,15.57s2.79,6.24,6.24,6.24h46.23
		v3.02c0,3.49,2.83,6.32,6.32,6.32h9.91C72.18,31.15,75.01,28.32,75.01,24.83z"/>
	<path class="st0" d="M43.21,60.83v-3.02h46.23c3.44,0,6.24-2.79,6.24-6.24s-2.79-6.24-6.24-6.24H43.21v-3.02
		c0-3.49-2.83-6.32-6.32-6.32h-9.91c-3.49,0-6.32,2.83-6.32,6.32v3.02H6.24C2.79,45.34,0,48.13,0,51.57s2.79,6.24,6.24,6.24h14.43
		v3.02c0,3.49,2.83,6.32,6.32,6.32h9.91C40.38,67.15,43.21,64.32,43.21,60.83z"/>
	<path class="st0" d="M75.01,96.83v-3.02h14.43c3.44,0,6.24-2.79,6.24-6.24s-2.79-6.24-6.24-6.24H75.01v-3.02
		c0-3.49-2.83-6.32-6.32-6.32h-9.91c-3.49,0-6.32,2.83-6.32,6.32v3.02H6.24C2.79,81.34,0,84.13,0,87.57s2.79,6.24,6.24,6.24h46.23
		v3.02c0,3.49,2.83,6.32,6.32,6.32h9.91C72.18,103.15,75.01,100.32,75.01,96.83z"/>
</g>
</svg>
