<?xml version="1.0" encoding="utf-8"?>
<!-- Generator: Adobe Illustrator 23.1.1, SVG Export Plug-In . SVG Version: 6.00 Build 0)  -->
<svg version="1.1" id="Lager_1" xmlns="http://www.w3.org/2000/svg" xmlns:xlink="http://www.w3.org/1999/xlink" x="0px" y="0px"
	 viewBox="0 0 108.21 113.58" style="enable-background:new 0 0 108.21 113.58;" xml:space="preserve">
<style type="text/css">
	.st0{fill:#FFFFFF;}
	.st1{fill:#616160;}
</style>
<g>
	<circle class="st0" cx="46.87" cy="26.09" r="26.09"/>
	<path class="st0" d="M65.84,55.97c0,0-14.99,13.6-37.89,0c-0.16-0.09-1.54,0.99-1.67,1.08c-1.5,1.03-2.95,2.14-4.34,3.3
		c-4.64,3.87-8.77,8.37-12.18,13.35c-1.74,2.54-3.29,5.21-4.63,7.99c-0.71,1.47-1.35,2.97-1.93,4.5c-0.55,1.45-1.11,2.93-1.61,4.43
		c-0.67,2.01-1.22,4.05-1.46,6.13c-0.4,3.47,0.11,7.12,2.19,10.02c3.21,4.48,9.04,6.03,14.24,6.57c1.4,0.14,2.81,0.23,4.22,0.23
		h34.51c-0.91-1.96-1.42-4.14-1.42-6.44V87.68c0-5.58,2.97-10.48,7.42-13.2v-4.07c0-5.37,1.76-10.34,4.73-14.36
		C65.95,56.03,65.89,56,65.84,55.97z"/>
	<path class="st0" d="M101.76,81.23h-0.97V70.42c0-8.41-6.84-15.26-15.26-15.26s-15.26,6.84-15.26,15.26v10.81h-0.97
		c-3.56,0-6.45,2.89-6.45,6.45v19.45c0,3.56,2.89,6.45,6.45,6.45h32.45c3.56,0,6.45-2.89,6.45-6.45V87.68
		C108.21,84.12,105.32,81.23,101.76,81.23z M85.53,103.07c-3.13,0-5.67-2.54-5.67-5.67c0-3.13,2.54-5.67,5.67-5.67
		s5.67,2.54,5.67,5.67C91.2,100.53,88.67,103.07,85.53,103.07z M93.51,81.23H77.55V70.42c0-4.4,3.58-7.98,7.98-7.98
		s7.98,3.58,7.98,7.98V81.23z"/>
</g>
</svg>
