<?xml version="1.0" encoding="utf-8"?>
<!-- Generator: Adobe Illustrator 23.0.2, SVG Export Plug-In . SVG Version: 6.00 Build 0)  -->
<svg version="1.1" id="Lager_1" xmlns="http://www.w3.org/2000/svg" xmlns:xlink="http://www.w3.org/1999/xlink" x="0px" y="0px"
	 viewBox="0 0 112.92 113.39" style="enable-background:new 0 0 112.92 113.39;" xml:space="preserve">
<style type="text/css">
	.st0{fill:#FFFFFF;}
</style>
<g>
	<g>
		<path class="st0" d="M76.19,86.84l-0.23-8.31c3.77-2.73,7.44-5.83,10.96-9.36c19.79-19.79,28.53-45.77,25.38-68.54
			C89.52-2.53,63.53,6.22,43.75,26.01c-3.53,3.53-6.63,7.19-9.36,10.96l-8.31-0.23C18.53,36.52,11,41.62,7.88,49.05L0,70.36
			c0,0,18.12-12.87,22.61-11.62c0.12,0.03,0.27,0.09,0.44,0.18c-1.43,4.21-2.51,8.5-3.27,12.84c-0.4,2.31,0.27,4.5,1.76,5.99
			l13.62,13.62c1.49,1.49,3.68,2.16,5.99,1.76c4.36-0.76,8.66-1.85,12.89-3.28c0.06,0.17,0.11,0.32,0.13,0.45
			c0.74,4.59-11.15,23.08-11.15,23.08l20.86-8.35C71.3,101.93,76.4,94.39,76.19,86.84z M79.94,32.98c-3.61-3.61-3.61-9.47,0-13.08
			c3.61-3.61,9.47-3.61,13.08,0c3.61,3.61,3.61,9.47,0,13.08C89.4,36.6,83.55,36.6,79.94,32.98z"/>
	</g>
	<g>
		<path class="st0" d="M13.64,99.28c-4.74-6.34,0.03-19.43,0.03-19.43c-4.3,5.44-9.67,19.4-7.94,27.34
			c7.94,1.73,21.9-3.64,27.34-7.94C33.08,99.25,19.98,104.02,13.64,99.28z"/>
	</g>
</g>
</svg>
