<?xml version="1.0" encoding="utf-8"?>
<!-- Generator: Adobe Illustrator 23.0.2, SVG Export Plug-In . SVG Version: 6.00 Build 0)  -->
<svg version="1.1" id="Lager_1" xmlns="http://www.w3.org/2000/svg" xmlns:xlink="http://www.w3.org/1999/xlink" x="0px" y="0px"
	 viewBox="0 0 179.95 113.39" style="enable-background:new 0 0 179.95 113.39;" xml:space="preserve">
<style type="text/css">
	.st0{fill:#FFFFFF;}
</style>
<g>
	<g>
		<path class="st0" d="M89.98,33.91c3.18,0,6.24,0.51,9.11,1.44L89.98,0l-9.11,35.34C83.74,34.41,86.8,33.91,89.98,33.91z"/>
		<path class="st0" d="M59.24,46.64c2.25-2.25,4.77-4.05,7.46-5.42L35.27,22.66L53.82,54.1C55.19,51.41,56.99,48.89,59.24,46.64z"/>
		<path class="st0" d="M46.51,77.37c0-3.18,0.51-6.24,1.44-9.11L12.6,77.37l35.34,9.11C47.02,83.61,46.51,80.55,46.51,77.37z"/>
		<path class="st0" d="M133.45,77.37c0,3.18-0.51,6.24-1.44,9.11l35.34-9.11l-35.34-9.11C132.94,71.14,133.45,74.2,133.45,77.37z"/>
		<path class="st0" d="M120.71,46.64c2.25,2.25,4.05,4.77,5.42,7.46l18.55-31.43l-31.43,18.55
			C115.94,42.59,118.47,44.39,120.71,46.64z"/>
		<path class="st0" d="M118.09,86.48c0.93-2.87,1.44-5.93,1.44-9.11c0-16.32-13.23-29.55-29.55-29.55S60.43,61.06,60.43,77.37
			c0,3.18,0.51,6.24,1.44,9.11H118.09z"/>
	</g>
	<path class="st0" d="M176.91,113.39H3.04c-1.68,0-3.04-1.36-3.04-3.04l0-3.11c0-1.68,1.36-3.04,3.04-3.04h173.87
		c1.68,0,3.04,1.36,3.04,3.04v3.11C179.95,112.02,178.59,113.39,176.91,113.39z"/>
</g>
</svg>
