<?xml version="1.0" encoding="utf-8"?>
<!-- Generator: Adobe Illustrator 23.0.2, SVG Export Plug-In . SVG Version: 6.00 Build 0)  -->
<svg version="1.1" id="Lager_1" xmlns="http://www.w3.org/2000/svg" xmlns:xlink="http://www.w3.org/1999/xlink" x="0px" y="0px"
	 viewBox="0 0 113.39 113.39" style="enable-background:new 0 0 113.39 113.39;" xml:space="preserve">
<style type="text/css">
	.st0{fill:#FFFFFF;}
</style>
<path class="st0" d="M96.78,16.61C74.64-5.53,38.74-5.54,16.6,16.6c-22.14,22.14-22.14,58.04,0,80.18s58.04,22.14,80.18,0
	C118.92,74.64,118.92,38.74,96.78,16.61z M94.97,56.7H80.04c-1.28,0-2.36-0.98-2.46-2.26c-0.61-8.09-4.48-15.99-11.61-21.51
	c-11.06-8.57-27-8.15-37.65,0.93c-6.78,5.78-10.29,13.81-10.54,21.91c-0.02,0.52-0.44,0.93-0.96,0.93c-0.54,0-0.98-0.44-0.96-0.97
	c0.27-11.54,5.4-23,15.37-30.99c14.85-11.91,36.47-11.8,51.21,0.24c9.29,7.59,14.29,18.19,15,29.03
	C97.53,55.45,96.42,56.7,94.97,56.7z"/>
</svg>
