<?xml version="1.0" encoding="utf-8"?>
<!-- Generator: Adobe Illustrator 23.0.2, SVG Export Plug-In . SVG Version: 6.00 Build 0)  -->
<svg version="1.1" id="Lager_1" xmlns="http://www.w3.org/2000/svg" xmlns:xlink="http://www.w3.org/1999/xlink" x="0px" y="0px"
	 viewBox="0 0 114.85 114.85" style="enable-background:new 0 0 114.85 114.85;" xml:space="preserve">
<style type="text/css">
	.st0{fill:#FFFFFF;}
</style>
<g>
	<path class="st0" d="M12,34.96V12h22.96c3.31,0,6-2.69,6-6v0c0-3.31-2.69-6-6-6L5.08,0C2.28,0,0,2.28,0,5.08v29.88
		c0,3.31,2.69,6,6,6h0C9.31,40.96,12,38.28,12,34.96z"/>
	<path class="st0" d="M79.88,12h22.96v22.96c0,3.31,2.69,6,6,6h0c3.31,0,6-2.69,6-6V5.08c0-2.81-2.28-5.08-5.08-5.08H79.88
		c-3.31,0-6,2.69-6,6v0C73.88,9.31,76.57,12,79.88,12z"/>
	<path class="st0" d="M102.85,79.88v22.96H79.88c-3.31,0-6,2.69-6,6v0c0,3.31,2.69,6,6,6h29.88c2.81,0,5.08-2.28,5.08-5.08V79.88
		c0-3.31-2.69-6-6-6h0C105.53,73.88,102.85,76.57,102.85,79.88z"/>
	<path class="st0" d="M34.96,102.85H12V79.88c0-3.31-2.69-6-6-6h0c-3.31,0-6,2.69-6,6l0,29.88c0,2.81,2.28,5.08,5.08,5.08h29.88
		c3.31,0,6-2.69,6-6v0C40.96,105.53,38.28,102.85,34.96,102.85z"/>
</g>
</svg>
