<?xml version="1.0" encoding="utf-8"?>
<!-- Generator: Adobe Illustrator 23.0.2, SVG Export Plug-In . SVG Version: 6.00 Build 0)  -->
<svg version="1.1" id="Lager_1" xmlns="http://www.w3.org/2000/svg" xmlns:xlink="http://www.w3.org/1999/xlink" x="0px" y="0px"
	 viewBox="0 0 113.59 113.59" style="enable-background:new 0 0 113.59 113.59;" xml:space="preserve">
<style type="text/css">
	.st0{fill:#FFFFFF;}
</style>
<g>
	<path class="st0" d="M56.5,59.42V36.59c0-2.54-2.06-4.59-4.59-4.59h0c-2.54,0-4.59,2.06-4.59,4.59v22.83v6.53
		c0,1.46,1.19,2.65,2.65,2.65h6.53h16.7c2.54,0,4.59-2.06,4.59-4.59v0c0-2.54-2.06-4.59-4.59-4.59H56.5z"/>
	<path class="st0" d="M56.79,10c25.8,0,46.79,20.99,46.79,46.79s-20.99,46.79-46.79,46.79S10,82.6,10,56.79S30.99,10,56.79,10
		 M56.79,0C25.43,0,0,25.43,0,56.79s25.43,56.79,56.79,56.79s56.79-25.43,56.79-56.79S88.16,0,56.79,0L56.79,0z"/>
</g>
</svg>
