<?xml version="1.0" encoding="utf-8"?>
<!-- Generator: Adobe Illustrator 23.0.2, SVG Export Plug-In . SVG Version: 6.00 Build 0)  -->
<svg version="1.1" id="Lager_1" xmlns="http://www.w3.org/2000/svg" xmlns:xlink="http://www.w3.org/1999/xlink" x="0px" y="0px"
	 viewBox="0 0 98.08 113.58" style="enable-background:new 0 0 98.08 113.58;" xml:space="preserve">
<style type="text/css">
	.st0{fill:#FFFFFF;}
</style>
<path class="st0" d="M76.56,55.51h15.31c3.43,0,6.21-2.78,6.21-6.21v0c0-3.43-2.78-6.21-6.21-6.21h-9.96L65.28,25.5
	c6.97-0.78,12.25-7.15,11.23-14.53C75.73,5.31,71.04,0.74,65.37,0.09C57.62-0.8,51.05,5.23,51.05,12.79c0,3.6,1.49,6.84,3.88,9.17
	H25.21L13.73,35.95c-2.18,2.66-1.79,6.57,0.87,8.75l0,0c2.65,2.17,6.56,1.78,8.73-0.87l7.76-9.45h13.36L31.93,56.17l-9.57,22.4H6.21
	C2.78,78.58,0,81.36,0,84.79v0C0,88.22,2.78,91,6.21,91h24.43l9.37-20.54l19.11,40.13c1.78,2.93,5.6,3.87,8.53,2.09l0,0
	c2.93-1.78,3.87-5.6,2.09-8.53L51.61,65.88l12.2-23.86L76.56,55.51z"/>
</svg>
