<?xml version="1.0" encoding="utf-8"?>
<!-- Generator: Adobe Illustrator 23.0.2, SVG Export Plug-In . SVG Version: 6.00 Build 0)  -->
<svg version="1.1" id="Lager_1" xmlns="http://www.w3.org/2000/svg" xmlns:xlink="http://www.w3.org/1999/xlink" x="0px" y="0px"
	 viewBox="0 0 104.27 113.39" style="enable-background:new 0 0 104.27 113.39;" xml:space="preserve">
<style type="text/css">
	.st0{fill:#FFFFFF;}
</style>
<g>
	<path class="st0" d="M19.77,59.51H4.35c-2.4,0-4.35,1.95-4.35,4.35v45.18c0,2.4,1.95,4.35,4.35,4.35h15.42
		c2.4,0,4.35-1.95,4.35-4.35V63.86C24.12,61.46,22.17,59.51,19.77,59.51z"/>
	<path class="st0" d="M59.85,0H44.42c-2.4,0-4.35,1.95-4.35,4.35v104.69c0,2.4,1.95,4.35,4.35,4.35h15.42c2.4,0,4.35-1.95,4.35-4.35
		V4.35C64.19,1.95,62.25,0,59.85,0z"/>
	<path class="st0" d="M99.92,35H84.5c-2.4,0-4.35,1.95-4.35,4.35v69.69c0,2.4,1.95,4.35,4.35,4.35h15.42c2.4,0,4.35-1.95,4.35-4.35
		V39.35C104.27,36.95,102.32,35,99.92,35z"/>
</g>
</svg>
