<?xml version="1.0" encoding="utf-8"?>
<!-- Generator: Adobe Illustrator 23.0.2, SVG Export Plug-In . SVG Version: 6.00 Build 0)  -->
<svg version="1.1" id="Lager_1" xmlns="http://www.w3.org/2000/svg" xmlns:xlink="http://www.w3.org/1999/xlink" x="0px" y="0px"
	 viewBox="0 0 78.9 113.39" style="enable-background:new 0 0 78.9 113.39;" xml:space="preserve">
<style type="text/css">
	.st0{fill:#FFFFFF;}
</style>
<g>
	<path class="st0" d="M39.45,54.64c-11.29,0-20.44,9.15-20.44,20.44c0,11.29,9.15,20.44,20.44,20.44c11.29,0,20.44-9.15,20.44-20.44
		C59.89,63.79,50.74,54.64,39.45,54.64z M39.45,81.02c-3.28,0-5.94-2.66-5.94-5.94c0-3.28,2.66-5.94,5.94-5.94
		c3.28,0,5.94,2.66,5.94,5.94C45.39,78.36,42.73,81.02,39.45,81.02z"/>
	<path class="st0" d="M75,0H3.9C1.76,0,0,1.76,0,3.9v105.58c0,2.15,1.76,3.9,3.9,3.9H75c2.15,0,3.9-1.76,3.9-3.9V3.9
		C78.9,1.76,77.14,0,75,0z M39.45,13.75c7.29,0,13.19,5.91,13.19,13.19c0,7.29-5.91,13.19-13.19,13.19
		c-7.29,0-13.19-5.91-13.19-13.19C26.26,19.66,32.16,13.75,39.45,13.75z M39.45,102.77c-15.29,0-27.69-12.4-27.69-27.69
		c0-15.29,12.4-27.69,27.69-27.69c15.29,0,27.69,12.4,27.69,27.69C67.14,90.37,54.74,102.77,39.45,102.77z"/>
	<path class="st0" d="M39.45,32.89c3.28,0,5.94-2.66,5.94-5.94c0-3.28-2.66-5.94-5.94-5.94c-3.28,0-5.94,2.66-5.94,5.94
		C33.51,30.22,36.17,32.89,39.45,32.89z"/>
</g>
</svg>
