<?xml version="1.0" encoding="utf-8"?>
<!-- Generator: Adobe Illustrator 24.0.1, SVG Export Plug-In . SVG Version: 6.00 Build 0)  -->
<svg version="1.1" id="Lager_1" xmlns="http://www.w3.org/2000/svg" xmlns:xlink="http://www.w3.org/1999/xlink" x="0px" y="0px"
	 viewBox="0 0 113.39 113.39" style="enable-background:new 0 0 113.39 113.39;" xml:space="preserve">
<style type="text/css">
	.st0{fill:#FFFFFF;}
	.st1{fill:#616160;}
</style>
<path class="st0" d="M56.69,0C25.38,0,0,25.38,0,56.69s25.38,56.69,56.69,56.69c31.31,0,56.69-25.38,56.69-56.69S88,0,56.69,0z
	 M73.73,9.87c8.15,2.98,15.32,8.01,20.84,14.48c-2.59,7.57-6.65,12.84-10.64,16.44c-3.68-6.3-9.49-11.21-16.45-13.74l-0.15-0.05
	c0.74-5.32,0.46-11.97-2.41-19.44C67.95,8.06,70.9,8.84,73.73,9.87z M24.67,18.54c6.46-5.42,14.3-9.24,22.94-10.84
	c5.26,6.04,7.79,12.2,8.93,17.44c-7.66,0.04-14.68,2.81-20.13,7.38c-0.04,0.04-0.07,0.07-0.11,0.11
	c-4.24-3.29-10.15-6.38-18.05-7.63C20.19,22.66,22.34,20.49,24.67,18.54z M10.03,74.15c-1.07-2.82-1.87-5.76-2.4-8.8
	c-0.49-2.81-0.75-5.71-0.75-8.66c0-5.83,1.01-11.45,2.85-16.65c7.85-1.52,14.44-0.64,19.56,1.02c-2.65,4.6-4.15,9.95-4.15,15.63
	c0,1.87,0.16,3.7,0.48,5.48l0.04,0.14C20.68,64.34,15.06,67.92,10.03,74.15z M39.65,103.52c-8.15-2.98-15.31-8.01-20.83-14.48
	c2.6-7.57,6.65-12.83,10.64-16.44c3.68,6.3,9.49,11.21,16.45,13.74l0.15,0.05c-0.74,5.32-0.46,11.97,2.41,19.44
	C45.42,105.32,42.48,104.54,39.65,103.52z M48.74,78.54c-5.17-1.89-9.47-5.53-12.17-10.23c-1.34-2.31-2.28-4.86-2.76-7.58
	c-0.23-1.31-0.35-2.66-0.35-4.04c0-4.23,1.14-8.2,3.12-11.62c1.36-2.35,3.12-4.45,5.19-6.19c4.03-3.4,9.24-5.44,14.94-5.44
	c2.8,0,5.47,0.49,7.95,1.39c5.17,1.89,9.47,5.53,12.17,10.23c1.34,2.31,2.28,4.86,2.76,7.58c0.23,1.31,0.35,2.66,0.35,4.04
	c0,4.23-1.14,8.2-3.12,11.62c-1.36,2.35-3.12,4.45-5.19,6.19c-4.03,3.4-9.24,5.44-14.94,5.44C53.89,79.94,51.22,79.44,48.74,78.54z
	 M88.71,94.85c-6.46,5.42-14.3,9.24-22.94,10.84c-5.26-6.04-7.79-12.2-8.93-17.44c7.66-0.04,14.68-2.81,20.13-7.38
	c0.04-0.04,0.07-0.07,0.11-0.11c4.25,3.29,10.15,6.37,18.05,7.63C93.2,90.73,91.04,92.89,88.71,94.85z M84.1,72.32
	c2.65-4.6,4.15-9.95,4.15-15.63c0-1.87-0.16-3.7-0.48-5.48l-0.04-0.14c4.98-2.03,10.6-5.6,15.63-11.83c1.07,2.82,1.87,5.76,2.4,8.8
	c0.49,2.81,0.75,5.71,0.75,8.66c0,5.83-1.01,11.43-2.85,16.64C95.8,74.85,89.21,73.97,84.1,72.32z"/>
</svg>
