<?xml version="1.0" encoding="utf-8"?>
<!-- Generator: Adobe Illustrator 23.1.1, SVG Export Plug-In . SVG Version: 6.00 Build 0)  -->
<svg version="1.1" id="Lager_1" xmlns="http://www.w3.org/2000/svg" xmlns:xlink="http://www.w3.org/1999/xlink" x="0px" y="0px"
	 viewBox="0 0 75.25 113.39" style="enable-background:new 0 0 75.25 113.39;" xml:space="preserve">
<style type="text/css">
	.st0{fill:#FFFFFF;}
	.st1{fill:#616160;}
</style>
<path class="st0" d="M69.99,0H5.26C2.36,0,0,2.36,0,5.26v102.86c0,2.91,2.36,5.26,5.26,5.26h64.73c2.91,0,5.26-2.36,5.26-5.26V5.26
	C75.25,2.36,72.9,0,69.99,0z M31.78,89.5H12.76V69.92h19.02V89.5z M31.78,60.62H12.76V41.04h19.02V60.62z M31.78,31.74H12.76V12.16
	h19.02V31.74z M62.49,89.5H43.47V69.92h19.02V89.5z M62.49,60.62H43.47V41.04h19.02V60.62z M62.49,31.74H43.47V12.16h19.02V31.74z"
	/>
</svg>
