<?xml version="1.0" encoding="utf-8"?>
<!-- Generator: Adobe Illustrator 23.0.2, SVG Export Plug-In . SVG Version: 6.00 Build 0)  -->
<svg version="1.1" id="Lager_1" xmlns="http://www.w3.org/2000/svg" xmlns:xlink="http://www.w3.org/1999/xlink" x="0px" y="0px"
	 viewBox="0 0 107.78 107.78" style="enable-background:new 0 0 107.78 107.78;" xml:space="preserve">
<style type="text/css">
	.st0{fill:#FFFFFF;}
</style>
<g>
	<path class="st0" d="M35.31,1.04c-3.25,0.08-5.75,2.93-5.75,6.18l0,13.22c0,0.02-0.03,0.04-0.05,0.02L10.93,1.87
		c-2.5-2.5-6.55-2.5-9.05,0l0,0c-2.5,2.5-2.5,6.55,0,9.05l18.58,18.58c0.02,0.02,0.01,0.05-0.02,0.05l-13.22,0
		c-3.25,0-6.1,2.5-6.18,5.75c-0.09,3.33,2.59,6.06,5.91,6.06h29.39c2.78,0,5.03-2.25,5.03-5.03V6.94
		C41.37,3.63,38.64,0.95,35.31,1.04z"/>
	<path class="st0" d="M71.44,41.37l29.12,0c3.25,0,6.1-2.5,6.18-5.75c0.09-3.33-2.59-6.06-5.91-6.06H87.34
		c-0.02,0-0.04-0.03-0.02-0.05l18.58-18.58c2.5-2.5,2.5-6.55,0-9.05l0,0c-2.5-2.5-6.55-2.5-9.05,0L78.27,20.46
		c-0.02,0.02-0.05,0.01-0.05-0.02l0-13.22c0-3.25-2.5-6.1-5.75-6.18c-3.33-0.09-6.06,2.59-6.06,5.91v29.39
		C66.41,39.12,68.66,41.37,71.44,41.37z"/>
	<path class="st0" d="M72.47,106.74c3.25-0.08,5.75-2.93,5.75-6.18l0-13.22c0-0.02,0.03-0.04,0.05-0.02l18.58,18.58
		c2.5,2.5,6.55,2.5,9.05,0l0,0c2.5-2.5,2.5-6.55,0-9.05L87.32,78.27c-0.02-0.02-0.01-0.05,0.02-0.05l13.22,0
		c3.25,0,6.1-2.5,6.18-5.75c0.09-3.33-2.59-6.06-5.91-6.06H71.44c-2.78,0-5.03,2.25-5.03,5.03v29.39
		C66.41,104.15,69.14,106.83,72.47,106.74z"/>
	<path class="st0" d="M10.93,105.91l18.58-18.58c0.02-0.02,0.05-0.01,0.05,0.02l0,13.22c0,3.25,2.5,6.1,5.75,6.18
		c3.33,0.09,6.06-2.59,6.06-5.91V71.44c0-2.78-2.25-5.03-5.03-5.03l-29.12,0c-3.25,0-6.1,2.5-6.18,5.75
		c-0.09,3.33,2.59,6.06,5.91,6.06h13.49c0.02,0,0.04,0.03,0.02,0.05L1.87,96.86c-2.5,2.5-2.5,6.55,0,9.05l0,0
		C4.37,108.41,8.43,108.41,10.93,105.91z"/>
</g>
</svg>
