<?xml version="1.0" encoding="utf-8"?>
<!-- Generator: Adobe Illustrator 23.0.2, SVG Export Plug-In . SVG Version: 6.00 Build 0)  -->
<svg version="1.1" id="Lager_1" xmlns="http://www.w3.org/2000/svg" xmlns:xlink="http://www.w3.org/1999/xlink" x="0px" y="0px"
	 viewBox="0 0 124.8 104.83" style="enable-background:new 0 0 124.8 104.83;" xml:space="preserve">
<style type="text/css">
	.st0{fill:#FFFFFF;}
</style>
<g>
	<path class="st0" d="M62.4,43.91c-9.78,0-17.74,7.96-17.74,17.74S52.62,79.4,62.4,79.4s17.74-7.96,17.74-17.74
		S72.18,43.91,62.4,43.91z"/>
	<path class="st0" d="M116.83,18.49h-20.2L84.05,4.66C81.35,1.69,77.52,0,73.51,0H51.29c-4.02,0-7.84,1.69-10.54,4.66L28.17,18.49
		H7.97c-4.4,0-7.97,3.57-7.97,7.97v70.4c0,4.4,3.57,7.97,7.97,7.97h108.86c4.4,0,7.97-3.57,7.97-7.97v-70.4
		C124.8,22.05,121.23,18.49,116.83,18.49z M62.4,92.64c-17.11,0-30.98-13.87-30.98-30.98S45.29,30.68,62.4,30.68
		s30.98,13.87,30.98,30.98S79.51,92.64,62.4,92.64z M106.48,46.66c-4.41,0-7.99-3.58-7.99-7.99c0-4.42,3.58-7.99,7.99-7.99
		s7.99,3.58,7.99,7.99C114.48,43.09,110.9,46.66,106.48,46.66z"/>
</g>
</svg>
