<?xml version="1.0" encoding="utf-8"?>
<!-- Generator: Adobe Illustrator 23.0.2, SVG Export Plug-In . SVG Version: 6.00 Build 0)  -->
<svg version="1.1" id="Lager_1" xmlns="http://www.w3.org/2000/svg" xmlns:xlink="http://www.w3.org/1999/xlink" x="0px" y="0px"
	 viewBox="0 0 126.59 113.39" style="enable-background:new 0 0 126.59 113.39;" xml:space="preserve">
<style type="text/css">
	.st0{fill:#FFFFFF;}
</style>
<g>
	<g>
		<path class="st0" d="M63.3,113.39c-22.47,0-44.94-8.55-62.05-25.66c-1.67-1.67-1.67-4.37,0-6.04c1.67-1.67,4.37-1.67,6.04,0
			c30.88,30.88,81.13,30.88,112.02,0c1.67-1.67,4.37-1.67,6.04,0c1.67,1.67,1.67,4.37,0,6.04
			C108.24,104.83,85.77,113.39,63.3,113.39z"/>
		<path class="st0" d="M63.3,92.44c-17.11,0-34.21-6.51-47.23-19.53c-1.67-1.67-1.67-4.37,0-6.04c1.67-1.67,4.37-1.67,6.04,0
			c22.72,22.71,59.67,22.71,82.38,0c1.67-1.67,4.37-1.67,6.04,0c1.67,1.67,1.67,4.37,0,6.04C97.5,85.93,80.4,92.44,63.3,92.44z"/>
		<path class="st0" d="M63.3,71.5c-11.74,0-23.48-4.47-32.41-13.41c-1.67-1.67-1.67-4.37,0-6.04c1.67-1.67,4.37-1.67,6.04,0
			c14.54,14.54,38.21,14.55,52.75,0c1.67-1.67,4.37-1.67,6.04,0c1.67,1.67,1.67,4.37,0,6.04C86.77,67.03,75.04,71.5,63.3,71.5z"/>
	</g>
	<g>
		<path class="st0" d="M68.68,34.12H57.91c-11.51,0-20.84-9.33-20.84-20.84v0h52.44v0C89.52,24.8,80.19,34.12,68.68,34.12z"/>
		<path class="st0" d="M91.76,0L34.84,0c-2.33,0-4.21,1.89-4.21,4.21v0c0,2.33,1.89,4.21,4.21,4.21h56.92
			c2.33,0,4.21-1.89,4.21-4.21v0C95.97,1.89,94.08,0,91.76,0z"/>
	</g>
</g>
</svg>
