<?xml version="1.0" encoding="utf-8"?>
<!-- Generator: Adobe Illustrator 23.0.2, SVG Export Plug-In . SVG Version: 6.00 Build 0)  -->
<svg version="1.1" id="Lager_1" xmlns="http://www.w3.org/2000/svg" xmlns:xlink="http://www.w3.org/1999/xlink" x="0px" y="0px"
	 viewBox="0 0 151.6 72.71" style="enable-background:new 0 0 151.6 72.71;" xml:space="preserve">
<style type="text/css">
	.st0{fill:#FFFFFF;}
</style>
<path class="st0" d="M39.27,11.42c0.39-0.08,0.81-0.12,1.26-0.12c3.16,0.01,6.33,0.28,9.49,0.42c8.04,0.35,16.08,0.71,24.12,1.06
	c0.86,0.04,1.72,0.08,2.58,0.11V3.03c0,0-0.33-3.29,4.27-2.96l10.52-0.02c0,0,2.96-0.63,2.96,2.98v10.63l16.22,1.1
	c0,0,1.1-0.22,2.63,1.97l37.27,51.74c0,0,3.07,3.73-1.53,4.17H78.03c0,0-2.63,0.44-4.6-1.75L40.77,25.71
	c-8.31,12.44-16.53,22.86-24.94,37.31c-3.66,6.3-5.7,10.15-9.92,9.64c-3.75-0.45-7.57-3.26-5.16-7.65c0.8-1.45,1.9-2.79,2.83-4.16
	c4.34-6.38,8.69-12.76,13.03-19.15c3.64-5.37,7.3-10.73,10.95-16.09c1.83-2.68,3.65-5.36,5.48-8.05
	C34.9,14.86,36.21,12.02,39.27,11.42z"/>
</svg>
