<?xml version="1.0" encoding="utf-8"?>
<!-- Generator: Adobe Illustrator 23.0.2, SVG Export Plug-In . SVG Version: 6.00 Build 0)  -->
<svg version="1.1" id="Lager_1" xmlns="http://www.w3.org/2000/svg" xmlns:xlink="http://www.w3.org/1999/xlink" x="0px" y="0px"
	 viewBox="0 0 114.85 114.85" style="enable-background:new 0 0 114.85 114.85;" xml:space="preserve">
<style type="text/css">
	.st0{fill:#FFFFFF;}
</style>
<g>
	<path class="st0" d="M108.85,67.42c-3.31,0-6,2.69-6,6v29.42H12V12h29.42c3.31,0,6-2.69,6-6s-2.69-6-6-6H4.97C2.23,0,0,2.23,0,4.97
		v104.9c0,2.75,2.23,4.97,4.97,4.97h104.9c2.75,0,4.97-2.23,4.97-4.97V73.42C114.85,70.11,112.16,67.42,108.85,67.42z"/>
	<path class="st0" d="M65.91,57.42l36.94-36.94v16.97c0,3.31,2.69,6,6,6s6-2.69,6-6V4.83c0-2.67-2.16-4.83-4.83-4.83H77.4
		c-3.31,0-6,2.69-6,6s2.69,6,6,6h16.97L57.42,48.94c-2.34,2.34-2.34,6.14,0,8.48S63.57,59.77,65.91,57.42z"/>
</g>
</svg>
