<?xml version="1.0" encoding="utf-8"?>
<!-- Generator: Adobe Illustrator 23.0.2, SVG Export Plug-In . SVG Version: 6.00 Build 0)  -->
<svg version="1.1" id="Lager_1" xmlns="http://www.w3.org/2000/svg" xmlns:xlink="http://www.w3.org/1999/xlink" x="0px" y="0px"
	 viewBox="0 0 114.85 114.85" style="enable-background:new 0 0 114.85 114.85;" xml:space="preserve">
<style type="text/css">
	.st0{fill:#FFFFFF;}
</style>
<g>
	<path class="st0" d="M109.91,0H4.93C2.21,0,0,2.21,0,4.93v104.98c0,2.72,2.21,4.93,4.93,4.93h104.98c2.72,0,4.93-2.21,4.93-4.93
		V4.93C114.85,2.21,112.64,0,109.91,0z M102.85,102.85H12V12h90.85V102.85z"/>
	<path class="st0" d="M38.02,83.6h39.11c3.66,0,6.62-2.97,6.62-6.62V37.87c0-3.66-2.97-6.62-6.62-6.62H38.02
		c-3.66,0-6.62,2.97-6.62,6.62v39.11C31.4,80.63,34.36,83.6,38.02,83.6z"/>
</g>
</svg>
