<?xml version="1.0" encoding="utf-8"?>
<!-- Generator: Adobe Illustrator 23.0.2, SVG Export Plug-In . SVG Version: 6.00 Build 0)  -->
<svg version="1.1" id="Lager_1" xmlns="http://www.w3.org/2000/svg" xmlns:xlink="http://www.w3.org/1999/xlink" x="0px" y="0px"
	 viewBox="0 0 83.82 113.58" style="enable-background:new 0 0 83.82 113.58;" xml:space="preserve">
<style type="text/css">
	.st0{fill:#FFFFFF;}
</style>
<g>
	<path class="st0" d="M78.53,16.95H58.17v-6.48C58.17,4.7,53.72,0,48.25,0H35.57c-5.47,0-9.92,4.7-9.92,10.47v6.48H5.29
		C2.37,16.95,0,19.32,0,22.24c0,2.92,2.37,5.29,5.29,5.29h73.24c2.92,0,5.29-2.37,5.29-5.29C83.82,19.32,81.45,16.95,78.53,16.95z
		 M50.5,16.95H33.31v-6.48c0-1.52,1.03-2.81,2.26-2.81h12.68c1.22,0,2.26,1.29,2.26,2.81V16.95z"/>
	<path class="st0" d="M4.44,102.03c0,6.38,5.17,11.55,11.55,11.55h51.83c6.38,0,11.55-5.17,11.55-11.55V36.12H4.44V102.03z
		 M56.22,51.51c0-2.5,2.03-4.53,4.53-4.53c2.5,0,4.53,2.03,4.53,4.53V96.5c0,2.5-2.03,4.53-4.53,4.53c-2.5,0-4.53-2.03-4.53-4.53
		V51.51z M37.38,51.51c0-2.5,2.03-4.53,4.53-4.53c2.5,0,4.53,2.03,4.53,4.53V96.5c0,2.5-2.03,4.53-4.53,4.53
		c-2.5,0-4.53-2.03-4.53-4.53V51.51z M18.55,51.51c0-2.5,2.03-4.53,4.53-4.53c2.5,0,4.53,2.03,4.53,4.53V96.5
		c0,2.5-2.03,4.53-4.53,4.53c-2.5,0-4.53-2.03-4.53-4.53V51.51z"/>
</g>
</svg>
