<?xml version="1.0" encoding="utf-8"?>
<!-- Generator: Adobe Illustrator 23.0.2, SVG Export Plug-In . SVG Version: 6.00 Build 0)  -->
<svg version="1.1" id="Lager_1" xmlns="http://www.w3.org/2000/svg" xmlns:xlink="http://www.w3.org/1999/xlink" x="0px" y="0px"
	 viewBox="0 0 91.88 113.39" style="enable-background:new 0 0 91.88 113.39;" xml:space="preserve">
<style type="text/css">
	.st0{fill:#FFFFFF;}
</style>
<path class="st0" d="M79.01,10.88C76.61,7.12,73.48,3.39,70.61,0c4.3,7.73-2.02,15.33-2.02,15.33c-8.2,9.87-18.9,14.8-30.78,18.79
	C27.54,37.57,17.28,44.3,12.86,54.58c-4.57,10.63-2.44,23.58,3.21,33.37c2.11,3.65,4.65,6.98,7.58,9.83l-0.09-0.08
	c-7.66,6.57-17.42,10.47-22.82,12.28c-1.06,0.35-0.96,1.88,0.13,2.11l6.1,1.28c0.28,0.06,0.57,0.01,0.81-0.14
	c10.69-6.58,18.45-13.14,18.45-13.14C41.82,88.74,63.19,68.7,72.59,39.42c0,0-4.47,33.66-35.21,63.73c-0.79,0.77-1.55,1.5-2.3,2.2
	c2.34,0.95,4.78,1.66,7.28,2.08c9.72,1.66,19.57-0.47,27.65-6.14C98.97,80.98,96.15,37.71,79.01,10.88z"/>
</svg>
