<?xml version="1.0" encoding="utf-8"?>
<!-- Generator: Adobe Illustrator 23.0.2, SVG Export Plug-In . SVG Version: 6.00 Build 0)  -->
<svg version="1.1" id="Lager_1" xmlns="http://www.w3.org/2000/svg" xmlns:xlink="http://www.w3.org/1999/xlink" x="0px" y="0px"
	 viewBox="0 0 115.29 115.29" style="enable-background:new 0 0 115.29 115.29;" xml:space="preserve">
<style type="text/css">
	.st0{fill:#FFFFFF;}
</style>
<path class="st0" d="M94.11,83.19l-1.22,1.22l-9.28-9.28c6.76-8.76,10.5-19.96,9.59-32.05C91.5,20.52,73.48,2.21,50.95,0.19
	C21.86-2.41-2.41,21.86,0.19,50.95C2.21,73.48,20.52,91.5,43.08,93.2c12.08,0.91,23.29-2.82,32.05-9.59l9.28,9.28l-1.22,1.22
	c-0.69,0.69-0.69,1.82,0,2.51l16.46,16.46c2.93,2.93,7.69,2.93,10.62,0l2.82-2.82c2.93-2.93,2.93-7.69,0-10.62L96.62,83.19
	C95.93,82.49,94.81,82.49,94.11,83.19z M46.67,81.34C27.55,81.34,12,65.78,12,46.67S27.55,12,46.67,12s34.67,15.55,34.67,34.67
	S65.79,81.34,46.67,81.34z"/>
</svg>
