<?xml version="1.0" encoding="utf-8"?>
<!-- Generator: Adobe Illustrator 23.0.2, SVG Export Plug-In . SVG Version: 6.00 Build 0)  -->
<svg version="1.1" id="Lager_1" xmlns="http://www.w3.org/2000/svg" xmlns:xlink="http://www.w3.org/1999/xlink" x="0px" y="0px"
	 viewBox="0 0 136.13 113.39" style="enable-background:new 0 0 136.13 113.39;" xml:space="preserve">
<style type="text/css">
	.st0{fill:#FFFFFF;}
</style>
<g>
	<path class="st0" d="M134.4,45.57l-14.32-15.41c-1.22-1.32-2.94-2.06-4.73-2.06H99.44V15.4c0-8.51-6.9-15.4-15.4-15.4H52.09
		c-8.51,0-15.4,6.9-15.4,15.4V28.1H20.78c-1.8,0-3.51,0.75-4.73,2.06L1.73,45.57C0.62,46.76,0,48.33,0,49.96v16.79h36.69v-5.6
		c0-1.65,1.34-2.98,2.98-2.98h5.72c1.65,0,2.98,1.34,2.98,2.98v5.6h39.38v-5.6c0-1.65,1.34-2.98,2.98-2.98h5.72
		c1.65,0,2.98,1.34,2.98,2.98v5.6h36.69V49.96C136.13,48.33,135.51,46.76,134.4,45.57z M87.75,28.1H48.37V15.4
		c0-2.05,1.67-3.72,3.72-3.72h31.95c2.05,0,3.72,1.67,3.72,3.72V28.1z"/>
	<path class="st0" d="M99.44,82.63c0,1.65-1.34,2.98-2.98,2.98h-5.72c-1.65,0-2.98-1.34-2.98-2.98V77.5H48.37v5.12
		c0,1.65-1.34,2.98-2.98,2.98h-5.72c-1.65,0-2.98-1.34-2.98-2.98V77.5H0v26.86c0,4.98,4.04,9.03,9.03,9.03H127.1
		c4.98,0,9.03-4.04,9.03-9.03V77.5H99.44V82.63z"/>
</g>
</svg>
