<?xml version="1.0" encoding="utf-8"?>
<!-- Generator: Adobe Illustrator 23.0.2, SVG Export Plug-In . SVG Version: 6.00 Build 0)  -->
<svg version="1.1" id="Lager_1" xmlns="http://www.w3.org/2000/svg" xmlns:xlink="http://www.w3.org/1999/xlink" x="0px" y="0px"
	 viewBox="0 0 144.18 97.91" style="enable-background:new 0 0 144.18 97.91;" xml:space="preserve">
<style type="text/css">
	.st0{fill:#FFFFFF;}
</style>
<g>
	<g>
		<path class="st0" d="M72.09,31.46c-0.73,0-1.45,0.06-2.16,0.15c0.11,0.69,0.18,1.39,0.18,2.11c0,7.33-5.94,13.27-13.27,13.27
			c-0.72,0-1.42-0.07-2.11-0.18c-0.09,0.71-0.15,1.43-0.15,2.16c0,9.66,7.83,17.5,17.5,17.5c9.66,0,17.5-7.83,17.5-17.5
			C89.59,39.29,81.75,31.46,72.09,31.46z"/>
	</g>
	<g>
		<path class="st0" d="M72.09,0C41.72,0,15.06,19.54,0,48.95c15.06,29.41,41.72,48.95,72.09,48.95c30.37,0,57.03-19.54,72.09-48.95
			C129.12,19.54,102.46,0,72.09,0z M72.09,82.39c-18.47,0-33.43-14.97-33.43-33.43c0-18.46,14.97-33.43,33.43-33.43
			s33.43,14.97,33.43,33.43C105.52,67.42,90.55,82.39,72.09,82.39z"/>
	</g>
</g>
</svg>
