<?xml version="1.0" encoding="utf-8"?>
<!-- Generator: Adobe Illustrator 23.0.2, SVG Export Plug-In . SVG Version: 6.00 Build 0)  -->
<svg version="1.1" id="Lager_1" xmlns="http://www.w3.org/2000/svg" xmlns:xlink="http://www.w3.org/1999/xlink" x="0px" y="0px"
	 viewBox="0 0 100.04 113.58" style="enable-background:new 0 0 100.04 113.58;" xml:space="preserve">
<style type="text/css">
	.st0{fill:#FFFFFF;}
</style>
<g>
	<path class="st0" d="M76.6,21.22c-3.57-2.25-8.23,0.39-8.23,4.61c0,1.84,0.94,3.56,2.5,4.54c11.93,7.52,19.55,21.28,18.22,36.66
		c-1.59,18.4-16.21,33.44-34.57,35.49c-23.62,2.64-43.7-15.86-43.7-38.96c0-13.97,7.34-26.25,18.37-33.19
		c1.56-0.98,2.5-2.7,2.5-4.54v-0.01c0-4.19-4.62-6.87-8.17-4.64C7.93,30.95-1.9,49.05,0.31,69.2c2.62,23.86,22.43,42.72,46.38,44.28
		c29.08,1.89,53.35-21.23,53.35-49.91C100.04,45.74,90.67,30.08,76.6,21.22z"/>
	<path class="st0" d="M50.02,63.56c2.99,0,5.41-2.42,5.41-5.41V5.41c0-2.99-2.42-5.41-5.41-5.41c-2.99,0-5.41,2.42-5.41,5.41v52.75
		C44.62,61.14,47.04,63.56,50.02,63.56z"/>
</g>
</svg>
