<?xml version="1.0" encoding="utf-8"?>
<!-- Generator: Adobe Illustrator 23.0.2, SVG Export Plug-In . SVG Version: 6.00 Build 0)  -->
<svg version="1.1" id="Lager_1" xmlns="http://www.w3.org/2000/svg" xmlns:xlink="http://www.w3.org/1999/xlink" x="0px" y="0px"
	 viewBox="0 0 111.94 113.39" style="enable-background:new 0 0 111.94 113.39;" xml:space="preserve">
<style type="text/css">
	.st0{fill:#FFFFFF;}
</style>
<g>
	<path class="st0" d="M30.47,89.27L2.42,107.61c-1.06,0.7-2.42-0.13-2.42-1.48V21.91c0-1.28,0.62-2.46,1.63-3.12L30.01,0.22
		c0.95-0.62,2.16,0.12,2.16,1.32V86C32.17,87.34,31.52,88.58,30.47,89.27z"/>
	<path class="st0" d="M41.28,89.3l28.1,23.08c1.1,0.9,2.67,0.05,2.67-1.43V27.32c0-1.31-0.57-2.55-1.54-3.35L42.17,0.69
		c-0.94-0.77-2.29-0.05-2.29,1.23v84.35C39.89,87.45,40.4,88.58,41.28,89.3z"/>
	<path class="st0" d="M110.15,97.19l-27.93,15.99c-1.11,0.63-2.44-0.23-2.44-1.59V27.76c0-1.56,0.8-2.99,2.07-3.72L109.6,8.16
		c1.06-0.61,2.34,0.23,2.34,1.53v84.28C111.94,95.31,111.25,96.55,110.15,97.19z"/>
</g>
</svg>
