<?xml version="1.0" encoding="utf-8"?>
<!-- Generator: Adobe Illustrator 23.0.2, SVG Export Plug-In . SVG Version: 6.00 Build 0)  -->
<svg version="1.1" id="Lager_1" xmlns="http://www.w3.org/2000/svg" xmlns:xlink="http://www.w3.org/1999/xlink" x="0px" y="0px"
	 viewBox="0 0 117.82 113.58" style="enable-background:new 0 0 117.82 113.58;" xml:space="preserve">
<style type="text/css">
	.st0{fill:#FFFFFF;}
</style>
<path class="st0" d="M115.08,50.4l2.73-32.17c0.17-2.04-2.09-3.37-3.79-2.24l-11.26,7.52C91.52,8.04,72.69-1.59,51.77,0.22
	C24.09,2.61,1.91,25.32,0.12,53.04c-2.13,33.01,24.11,60.54,56.67,60.54c16.9,0,32.09-7.42,42.5-19.18
	c3.27-3.69,0.92-9.55-3.98-10.1h0c-1.95-0.22-3.9,0.5-5.21,1.97c-8.89,10.03-22.22,16.05-36.89,14.9
	C32.18,99.52,14.9,82.87,12.56,61.88C9.57,35.07,30.57,12.27,56.79,12.27c14.65,0,27.63,7.13,35.74,18.08l-12.01,8.02
	c-1.7,1.14-1.33,3.74,0.62,4.36l30.77,9.79C113.4,53,114.95,51.97,115.08,50.4z"/>
</svg>
