<?xml version="1.0" encoding="utf-8"?>
<!-- Generator: Adobe Illustrator 23.0.2, SVG Export Plug-In . SVG Version: 6.00 Build 0)  -->
<svg version="1.1" id="Lager_1" xmlns="http://www.w3.org/2000/svg" xmlns:xlink="http://www.w3.org/1999/xlink" x="0px" y="0px"
	 viewBox="0 0 154.45 113.39" style="enable-background:new 0 0 154.45 113.39;" xml:space="preserve">
<style type="text/css">
	.st0{fill:#FFFFFF;}
</style>
<g>
	<path class="st0" d="M72.25,4.15L36.98,33.49h-30C3.12,33.49,0,36.62,0,40.47v32.44c0,3.85,3.12,6.98,6.98,6.98h30l35.27,29.35
		c3.42,2.85,8.62,0.41,8.62-4.04V8.19C80.87,3.74,75.67,1.3,72.25,4.15z"/>
	<path class="st0" d="M129.51,56.71c0.02-13.91-7.14-26.16-17.96-33.31c-2.49-1.65-5.89-0.6-7.17,2.09l-0.01,0.02
		c-1.06,2.24-0.29,4.89,1.77,6.26c8.07,5.37,13.4,14.53,13.38,24.93c-0.01,10.4-5.37,19.55-13.46,24.89
		c-2.07,1.37-2.85,4.01-1.79,6.25l0.01,0.02c1.27,2.7,4.67,3.76,7.16,2.12C122.3,82.85,129.49,70.62,129.51,56.71z"/>
	<path class="st0" d="M122.17,0.69c-2.53-1.48-5.8-0.48-7.06,2.17c-1.09,2.3-0.29,5.09,1.91,6.36
		c16.41,9.51,27.48,27.23,27.45,47.51c-0.03,20.29-11.15,37.97-27.59,47.43c-2.21,1.27-3.01,4.05-1.93,6.36
		c1.25,2.65,4.51,3.66,7.05,2.19c19.33-11.2,32.4-32.05,32.44-55.96C154.48,32.84,141.47,11.95,122.17,0.69z"/>
</g>
</svg>
