<?xml version="1.0" encoding="utf-8"?>
<!-- Generator: Adobe Illustrator 23.0.2, SVG Export Plug-In . SVG Version: 6.00 Build 0)  -->
<svg version="1.1" id="Lager_1" xmlns="http://www.w3.org/2000/svg" xmlns:xlink="http://www.w3.org/1999/xlink" x="0px" y="0px"
	 viewBox="0 0 66.19 107.83" style="enable-background:new 0 0 66.19 107.83;" xml:space="preserve">
<style type="text/css">
	.st0{fill:#FFFFFF;}
</style>
<g>
	<path class="st0" d="M33.1,0C14.82,0,0,13.73,0,30.67c0,8.92,4.12,16.95,10.68,22.55c0.53,0.45,1.2,0.68,1.9,0.68
		c5.95-0.02,35.09-0.02,41.04,0c0.69,0,1.37-0.23,1.9-0.68c6.56-5.6,10.68-13.63,10.68-22.55C66.19,13.73,51.37,0,33.1,0z"/>
	<path class="st0" d="M10.59,61.63c2.31,4.26,7.63,14.58,8.19,20.38c0.07,0.7,0.69,1.23,1.46,1.23h25.73c0.77,0,1.39-0.54,1.46-1.23
		c0.55-5.8,5.88-16.13,8.19-20.38c0.48-0.88-0.23-1.92-1.32-1.92H11.9C10.82,59.71,10.11,60.74,10.59,61.63z"/>
	<path class="st0" d="M21.41,91.73v6.93c0,1.67,1.35,3.02,3.02,3.02h1.68c0.45,3.45,3.41,6.14,6.98,6.14s6.53-2.69,6.98-6.14h1.68
		c1.67,0,3.02-1.35,3.02-3.02v-6.93c0-1.48-1.2-2.68-2.68-2.68H24.09C22.61,89.05,21.41,90.25,21.41,91.73z"/>
</g>
</svg>
