<?xml version="1.0" encoding="utf-8"?>
<!-- Generator: Adobe Illustrator 23.0.2, SVG Export Plug-In . SVG Version: 6.00 Build 0)  -->
<svg version="1.1" id="Lager_1" xmlns="http://www.w3.org/2000/svg" xmlns:xlink="http://www.w3.org/1999/xlink" x="0px" y="0px"
	 viewBox="0 0 128.7 111.58" style="enable-background:new 0 0 128.7 111.58;" xml:space="preserve">
<style type="text/css">
	.st0{fill:#FFFFFF;}
</style>
<g>
	<path class="st0" d="M1.43,81.81l60.39,29.59c1.16,0.57,2.52-0.28,2.52-1.57V66.97c0-0.98-0.56-1.87-1.43-2.3L2.52,35.09
		C1.36,34.52,0,35.36,0,36.66v42.86C0,80.49,0.56,81.39,1.43,81.81z"/>
	<path class="st0" d="M54.78,51l7.12-3.91c1.51-0.83,2.44-2.41,2.44-4.13V2.2c0-1.67-1.79-2.73-3.26-1.93L10.45,28.11
		c-0.94,0.52-0.91,1.87,0.06,2.34l42.06,20.6C53.26,51.4,54.09,51.38,54.78,51z"/>
	<path class="st0" d="M72.02,66.51v42.79c0,1.33,1.43,2.18,2.6,1.54l51.63-28.38c1.51-0.83,2.44-2.41,2.44-4.13V37.57
		c0-1.67-1.79-2.73-3.26-1.93L73.35,64.27C72.53,64.72,72.02,65.58,72.02,66.51z"/>
</g>
</svg>
