<?xml version="1.0" encoding="utf-8"?>
<!-- Generator: Adobe Illustrator 23.0.2, SVG Export Plug-In . SVG Version: 6.00 Build 0)  -->
<svg version="1.1" id="Lager_1" xmlns="http://www.w3.org/2000/svg" xmlns:xlink="http://www.w3.org/1999/xlink" x="0px" y="0px"
	 viewBox="0 0 117.89 113.39" style="enable-background:new 0 0 117.89 113.39;" xml:space="preserve">
<style type="text/css">
	.st0{fill:#FFFFFF;}
</style>
<g>
	<g>
		<path class="st0" d="M116.66,90.94l-30.62-28.4c-4.4-4.08-10.72-4.79-15.8-2.28L35.97,28.48l-1.43-13.7L11.41,1.81L0,14.11
			l14.67,22.1l13.77,0.4l34.27,31.78c-2.13,5.26-0.94,11.5,3.46,15.58l30.62,28.4c1.55,1.44,3.97,1.34,5.4-0.2l14.67-15.82
			C118.3,94.8,118.21,92.38,116.66,90.94z"/>
	</g>
	<g>
		<path class="st0" d="M73.01,48.69c1.16-0.17,2.33-0.25,3.5-0.25c6.17,0,12.06,2.31,16.59,6.51l3.58,3.32
			c3.79-1.23,7.39-3.22,10.56-6.02c7.4-6.55,10.77-15.94,9.95-25.08c-0.12-1.37-1.77-2.01-2.8-1.1L97.34,41.15L82.7,34.06
			l-5.25-15.38L94.5,3.59c1.03-0.91,0.6-2.62-0.75-2.91C84.78-1.26,75.04,0.95,67.64,7.5c-7.98,7.07-11.28,17.45-9.67,27.25
			L73.01,48.69z"/>
	</g>
	<g>
		<g>
			<path class="st0" d="M51.39,72.02L36.21,57.95L5.3,83.87c-5.79,5.12-6.33,13.97-1.21,19.76c5.12,5.79,13.97,6.33,19.76,1.21
				l28.01-26.15C51.41,76.5,51.24,74.26,51.39,72.02z M19.96,98.64c-2.81,2.48-7.09,2.22-9.58-0.58c-2.48-2.81-2.22-7.09,0.58-9.58
				c2.81-2.48,7.09-2.22,9.58,0.58C23.03,91.87,22.77,96.16,19.96,98.64z"/>
		</g>
	</g>
</g>
</svg>
