<?xml version="1.0" encoding="utf-8"?>
<!-- Generator: Adobe Illustrator 23.0.2, SVG Export Plug-In . SVG Version: 6.00 Build 0)  -->
<svg version="1.1" id="Lager_1" xmlns="http://www.w3.org/2000/svg" xmlns:xlink="http://www.w3.org/1999/xlink" x="0px" y="0px"
	 viewBox="0 0 133.72 113.39" style="enable-background:new 0 0 133.72 113.39;" xml:space="preserve">
<style type="text/css">
	.st0{fill:#FFFFFF;}
</style>
<g>
	<path class="st0" d="M13.68,69.14c-3.59,0-6.97-0.88-9.97-2.41v35.58c0,6.12,4.96,11.07,11.07,11.07h104.14
		c6.12,0,11.07-4.96,11.07-11.07V66.74c-3,1.53-6.38,2.41-9.97,2.41H13.68z"/>
	<path class="st0" d="M125.32,18.67H91.55l0-7.63C91.55,4.94,86.61,0,80.51,0H53.2c-6.1,0-11.04,4.94-11.04,11.04v7.63H8.39
		c-1.16,0-2.26,0.23-3.27,0.66c-0.5,0.21-0.98,0.47-1.43,0.77c-0.89,0.6-1.66,1.37-2.27,2.27C0.53,23.71,0,25.33,0,27.06v20.02
		c0,0.46,0.02,0.92,0.07,1.37c0.02,0.21,0.06,0.42,0.09,0.63c0.03,0.23,0.06,0.46,0.11,0.69c0.06,0.28,0.13,0.56,0.21,0.84
		c0.04,0.14,0.07,0.28,0.11,0.42c0.1,0.33,0.22,0.66,0.34,0.98c0.03,0.07,0.05,0.15,0.08,0.23c0.15,0.36,0.31,0.7,0.48,1.04
		c0.02,0.03,0.03,0.07,0.05,0.1c0.19,0.36,0.4,0.72,0.62,1.06c0,0.01,0.01,0.01,0.01,0.02c0.46,0.71,0.97,1.37,1.55,1.98
		c2.5,2.66,6.03,4.33,9.97,4.33h40.14v-6.14c0-1.47,1.19-2.66,2.66-2.66h20.76c1.47,0,2.66,1.19,2.66,2.66v6.14h40.14
		c3.93,0,7.47-1.67,9.97-4.33c0.57-0.61,1.09-1.27,1.55-1.98c0-0.01,0.01-0.01,0.01-0.02c0.22-0.34,0.43-0.7,0.62-1.06
		c0.02-0.03,0.03-0.07,0.05-0.1c0.17-0.34,0.34-0.69,0.48-1.04c0.03-0.08,0.06-0.15,0.08-0.23c0.12-0.32,0.24-0.64,0.34-0.97
		c0.04-0.14,0.07-0.28,0.11-0.42c0.07-0.28,0.15-0.56,0.21-0.84c0.05-0.23,0.07-0.47,0.11-0.7c0.03-0.2,0.07-0.41,0.09-0.61
		c0.04-0.45,0.07-0.91,0.07-1.37V27.06C133.72,22.43,129.96,18.67,125.32,18.67z M50.54,18.67v-7.63c0-1.47,1.19-2.66,2.66-2.66
		h27.31c1.47,0,2.66,1.19,2.66,2.66l0,7.63H50.54z"/>
</g>
</svg>
