<?xml version="1.0" encoding="utf-8"?>
<!-- Generator: Adobe Illustrator 23.0.2, SVG Export Plug-In . SVG Version: 6.00 Build 0)  -->
<svg version="1.1" id="Lager_1" xmlns="http://www.w3.org/2000/svg" xmlns:xlink="http://www.w3.org/1999/xlink" x="0px" y="0px"
	 viewBox="0 0 113.08 113" style="enable-background:new 0 0 113.08 113;" xml:space="preserve">
<style type="text/css">
	.st0{fill:#FFFFFF;}
</style>
<g id="vMSYqO_2_">
	<g>
		<path class="st0" d="M0.12,87.58c0-0.62-0.03-1.05,0.01-1.47c0.03-0.3-0.12-0.56-0.12-0.86c0.01-0.28-0.03-0.57,0.01-0.85
			c0.21-1.6,0.07-3.21,0.1-4.82c0.02-1.62,0.01-3.24,0.01-4.86c0-1.64,0-3.28,0-4.92c0-1.62,0-3.24,0-4.87c0-1.62,0-3.24,0-4.87
			s0-3.24,0-4.87c0-10.24,0-20.48,0-30.72c0-0.53,0.1-1.06,0.13-1.59c0.03-0.51,0.09-1.05,0.2-1.55c0.13-0.56,0.18-1.14,0.38-1.69
			c0.16-0.45,0.21-0.93,0.35-1.39c0.28-0.9,0.57-1.81,0.97-2.67c0.41-0.89,0.82-1.78,1.28-2.64c0.33-0.61,0.73-1.18,1.12-1.76
			c0.44-0.64,0.92-1.25,1.4-1.86C6.68,8.4,7.5,7.57,8.36,6.76c0.33-0.31,0.68-0.61,1.05-0.89c0.36-0.27,0.71-0.57,1.07-0.86
			c0.5-0.39,1.04-0.73,1.57-1.08c1.03-0.7,2.18-1.21,3.3-1.74c1.03-0.49,2.12-0.84,3.21-1.2c0.47-0.16,0.97-0.22,1.44-0.35
			c0.45-0.13,0.91-0.15,1.36-0.3c0.25-0.08,0.53-0.05,0.8-0.1c0.47-0.1,0.96-0.07,1.43-0.13c1.71-0.21,3.43-0.07,5.14-0.1
			c1.73-0.03,3.45-0.01,5.18-0.01c1.71,0,3.42,0,5.13,0c1.73,0,3.45,0,5.18,0s3.45,0,5.18,0c1.73,0,3.45,0,5.18,0
			c1.71,0,3.42,0,5.13,0c1.73,0,3.46,0,5.19,0c1.73,0,3.45,0,5.18,0c1.73,0,3.45,0,5.18,0c1.71,0,3.42,0,5.13,0
			c1.73,0,3.45,0,5.18,0c0.95,0,1.9,0.01,2.86-0.01C89.02,0,89.59,0.2,90.19,0.12c0.25,0.15,0.55,0.05,0.8,0.12
			c0.27,0.08,0.55,0.04,0.8,0.1c0.83,0.21,1.67,0.37,2.5,0.59c0.73,0.2,1.43,0.48,2.16,0.67c0.22,0.06,0.43,0.16,0.64,0.25
			c1.07,0.5,2.12,1.02,3.17,1.55c0.7,0.35,1.32,0.81,1.96,1.25c0.53,0.36,1.02,0.78,1.53,1.18c0.84,0.66,1.58,1.4,2.33,2.15
			c0.41,0.41,0.76,0.88,1.13,1.33c0.29,0.35,0.58,0.71,0.86,1.07c0.4,0.52,0.73,1.07,1.1,1.61c0.7,1.02,1.18,2.15,1.73,3.25
			c0.26,0.52,0.48,1.07,0.67,1.62c0.19,0.54,0.42,1.07,0.54,1.62c0.14,0.68,0.43,1.33,0.45,2.04c0.19,0.18,0.03,0.44,0.15,0.63
			c0.12,0.2-0.01,0.43,0.07,0.61c0.14,0.32,0.01,0.67,0.13,0.95c0.14,0.33,0,0.66,0.08,0.97c0.16,0.58,0.08,1.17,0.1,1.76
			c0.01,0.6,0,1.2,0,1.8c0,20.43,0,40.86,0,61.29c0,0.53-0.16,1.05-0.12,1.6c0.01,0.14-0.1,0.31-0.1,0.48
			c0,0.17,0.04,0.33-0.05,0.51c-0.07,0.14-0.02,0.34-0.05,0.51c-0.11,0.55-0.18,1.12-0.35,1.65c-0.1,0.31-0.07,0.66-0.28,0.94
			c-0.05,0.58-0.32,1.1-0.49,1.65c-0.48,1.5-1.2,2.89-1.94,4.27c-0.47,0.86-1.03,1.66-1.61,2.46c-0.45,0.62-0.97,1.19-1.45,1.78
			c-0.55,0.68-1.17,1.3-1.82,1.88c-0.67,0.6-1.35,1.18-2.08,1.71c-0.62,0.45-1.25,0.9-1.9,1.3c-0.84,0.53-1.75,0.95-2.65,1.39
			c-1.04,0.51-2.13,0.9-3.24,1.24c-0.59,0.18-1.2,0.36-1.82,0.46c-0.59,0.1-1.16,0.32-1.77,0.31c-0.31,0.19-0.68,0.03-1,0.15
			c-0.33,0.13-0.66-0.01-0.98,0.07c-0.81,0.2-1.63,0.09-2.44,0.09c-20.78,0.01-41.56,0.01-62.35,0.01c-0.53,0-1.06-0.1-1.59-0.13
			c-0.51-0.03-1.05-0.09-1.55-0.2c-0.56-0.13-1.14-0.2-1.69-0.37c-0.45-0.14-0.93-0.21-1.39-0.36c-0.9-0.29-1.81-0.57-2.67-0.97
			c-0.89-0.42-1.78-0.82-2.64-1.28c-0.61-0.33-1.18-0.73-1.76-1.12c-0.64-0.44-1.25-0.92-1.86-1.4c-0.92-0.74-1.8-1.54-2.58-2.42
			c-0.6-0.67-1.18-1.36-1.71-2.08c-0.57-0.78-1.1-1.59-1.62-2.41c-0.39-0.62-0.66-1.31-0.98-1.97c-0.51-1.06-0.93-2.15-1.28-3.28
			c-0.21-0.66-0.35-1.34-0.53-2c-0.08-0.29-0.13-0.58-0.19-0.87c-0.06-0.28-0.16-0.55-0.13-0.85c0.02-0.17-0.07-0.36-0.09-0.54
			c-0.02-0.17,0.03-0.34-0.11-0.49c-0.02-0.02,0-0.07,0-0.1C0.24,89.22,0.01,88.31,0.12,87.58z M109.38,23.86
			c-0.01-0.29-0.01-0.55-0.09-0.83c-0.08-0.27-0.02-0.57-0.11-0.85c-0.09-0.29-0.04-0.62-0.13-0.9c-0.09-0.3-0.11-0.62-0.2-0.92
			c-0.09-0.33-0.17-0.67-0.28-1c-0.17-0.53-0.36-1.05-0.55-1.57c-0.22-0.6-0.51-1.17-0.75-1.75c-0.21-0.49-0.5-0.92-0.73-1.39
			c-0.21-0.42-0.47-0.8-0.71-1.18c-0.34-0.55-0.74-1.08-1.15-1.59c-0.54-0.67-1.13-1.3-1.72-1.94c-0.12-0.13-0.31-0.21-0.44-0.34
			c-0.63-0.69-1.4-1.21-2.12-1.79c-0.27-0.22-0.55-0.44-0.86-0.6c-0.46-0.23-0.82-0.62-1.33-0.75c-0.72-0.59-1.66-0.78-2.44-1.27
			c-0.85-0.23-1.66-0.62-2.51-0.82c-0.68-0.16-1.36-0.31-2.04-0.43C91,3.9,90.76,3.85,90.53,3.83c-0.25-0.02-0.51,0.03-0.75-0.11
			c-0.57,0.06-1.13-0.1-1.7-0.1c-20.78,0-41.56,0-62.35,0c-0.44,0-0.89-0.06-1.34,0.09c-0.22,0.07-0.49,0-0.74,0.02
			c-0.23,0.02-0.46,0.07-0.7,0.1c-0.35,0.04-0.72,0.03-1.06,0.12c-0.48,0.13-0.97,0.2-1.46,0.31c-0.34,0.08-0.66,0.18-0.99,0.28
			c-0.53,0.16-1.05,0.37-1.57,0.54c-0.58,0.19-1.12,0.46-1.67,0.7c-1.08,0.49-2.1,1.1-3.06,1.79c-0.82,0.58-1.64,1.16-2.34,1.9
			c-0.08,0.09-0.16,0.22-0.26,0.25c-0.28,0.1-0.47,0.32-0.61,0.54c-0.2,0.29-0.46,0.51-0.69,0.77C9,11.31,8.73,11.58,8.51,11.89
			c-0.5,0.69-0.99,1.38-1.46,2.09c-0.29,0.45-0.53,0.94-0.8,1.41C6,15.84,5.83,16.32,5.6,16.76c-0.24,0.47-0.4,0.97-0.6,1.45
			c-0.24,0.57-0.37,1.19-0.54,1.78c-0.18,0.6-0.26,1.23-0.41,1.84c-0.12,0.49-0.16,1-0.2,1.5c-0.04,0.55-0.12,1.1-0.13,1.65
			c0,20.92,0,41.85,0,62.77c0,0.3-0.03,0.6,0.09,0.91c0.08,0.22,0,0.49,0.02,0.73c0.02,0.25,0.07,0.5,0.1,0.75
			c0.04,0.35,0.02,0.73,0.12,1.06c0.13,0.46,0.16,0.95,0.31,1.4c0.12,0.36,0.17,0.73,0.3,1.09c0.18,0.49,0.35,0.98,0.52,1.48
			c0.22,0.64,0.52,1.23,0.77,1.85c0.18,0.44,0.45,0.84,0.68,1.25c0.23,0.41,0.44,0.85,0.72,1.23c0.4,0.54,0.77,1.1,1.19,1.62
			c0.52,0.64,1.08,1.25,1.64,1.86c0.15,0.16,0.35,0.27,0.51,0.42c0.33,0.3,0.65,0.62,0.99,0.91c0.61,0.52,1.26,0.97,1.9,1.43
			c0.51,0.37,1.08,0.69,1.65,0.99c0.79,0.42,1.61,0.8,2.45,1.12c0.72,0.27,1.44,0.53,2.19,0.73c0.69,0.18,1.38,0.31,2.07,0.48
			c0.49,0.12,1,0.18,1.5,0.2c0.66,0.02,1.31,0.14,1.96,0.14c20.78-0.01,41.56-0.01,62.35-0.01c0.34,0,0.68,0.05,1.02-0.09
			c0.21-0.08,0.49,0,0.73-0.02c0.25-0.02,0.5-0.07,0.75-0.1c0.35-0.04,0.73-0.01,1.06-0.12c0.45-0.14,0.91-0.16,1.35-0.3
			c0.36-0.12,0.73-0.17,1.09-0.3c0.51-0.17,1.02-0.36,1.52-0.53c0.59-0.2,1.15-0.47,1.71-0.72c1.03-0.48,2.01-1.05,2.94-1.72
			c0.84-0.61,1.69-1.2,2.43-1.93c0.28-0.28,0.64-0.49,0.88-0.8c0.26-0.35,0.59-0.64,0.87-0.96c0.2-0.23,0.43-0.45,0.59-0.71
			c0.44-0.69,0.99-1.3,1.39-2.01c0.27-0.49,0.57-0.96,0.85-1.45c0.3-0.51,0.49-1.07,0.75-1.59c0.21-0.43,0.34-0.88,0.52-1.32
			c0.26-0.64,0.44-1.3,0.61-1.97c0.14-0.55,0.24-1.1,0.35-1.66c0.09-0.46,0.14-0.93,0.19-1.4c0.06-0.56,0.12-1.13,0.12-1.7
			c0.02-2.13,0.01-4.27,0.01-6.4c0-2.15,0-4.3,0-6.45c0-2.13,0-4.27,0-6.4c0-2.15,0-4.3,0-6.45c0-2.13,0-4.27,0-6.4
			c0-2.13,0-4.27,0-6.4c0-2.15,0-4.3,0-6.45c0-2.13,0-4.27,0-6.4c0-2.15,0.02-4.3-0.01-6.45C109.45,28.08,109.59,25.96,109.38,23.86
			z"/>
		<path class="st0" d="M52.9,73.31c0,0.19,0,0.36,0,0.54c0,4,0,8,0,12c0,0.63-0.26,1.16-0.68,1.62c-0.22,0.24-0.44,0.48-0.74,0.64
			c-0.21,0.12-0.73,0.28-0.98,0.33c-1.11,0.21-2.23,0.09-3.34,0.09c-4.6,0.02-9.2,0.01-13.8,0.01c-0.17,0-0.35,0-0.54,0
			c0-21.36,0-42.72,0-64.1c0.18,0,0.35,0,0.52,0c9.52,0,19.03,0,28.55,0c0.41,0,0.82,0.08,1.23,0.1c0.4,0.02,0.82-0.05,1.21,0.02
			c0.36,0.07,0.72,0.03,1.07,0.11c0.29,0.06,0.58,0.04,0.86,0.1c0.27,0.06,0.53,0.11,0.8,0.09c0.23,0.23,0.55,0.04,0.82,0.19
			c0.23,0.13,0.57,0.05,0.84,0.13c0.62,0.18,1.25,0.28,1.86,0.47c0.7,0.22,1.4,0.44,2.1,0.68c0.42,0.14,0.84,0.28,1.24,0.46
			c0.55,0.24,1.09,0.51,1.63,0.78c0.81,0.41,1.6,0.86,2.33,1.39c0.73,0.52,1.47,1.03,2.12,1.66c0.28,0.27,0.61,0.51,0.88,0.8
			c0.94,0.99,1.82,2.03,2.53,3.18c0.44,0.71,0.88,1.42,1.2,2.2c0.23,0.56,0.48,1.1,0.68,1.67c0.19,0.55,0.32,1.13,0.59,1.66
			c0,0.56,0.25,1.07,0.34,1.61c0.08,0.47,0.1,0.96,0.29,1.41c0.01,0.02,0,0.04,0,0.05c0.04,0.46,0.02,0.93,0.12,1.38
			c0.14,0.67,0.02,1.35,0.11,2.02c0.06,0.43,0.07,0.85,0.09,1.28c0.02,0.38-0.15,0.73-0.12,1.12c0.04,0.38,0.07,0.79-0.01,1.16
			c-0.07,0.34-0.05,0.68-0.1,1.02c-0.04,0.27-0.1,0.53-0.1,0.8c0,0.27-0.07,0.54-0.12,0.8c-0.1,0.49-0.18,0.98-0.3,1.46
			c-0.1,0.38-0.18,0.77-0.31,1.14c-0.13,0.37-0.21,0.76-0.32,1.14c-0.16,0.53-0.37,1.04-0.58,1.56c-0.3,0.74-0.61,1.48-1,2.17
			c-0.27,0.47-0.52,0.95-0.8,1.41c-0.29,0.48-0.6,0.96-0.97,1.4c-0.19,0.23-0.34,0.5-0.53,0.73c-0.34,0.4-0.69,0.78-1.05,1.15
			c-0.46,0.48-0.94,0.96-1.42,1.42c-0.48,0.46-1.03,0.83-1.54,1.25c-0.49,0.41-1.03,0.76-1.56,1.1c-0.84,0.53-1.72,1.01-2.63,1.42
			c-0.76,0.34-1.52,0.67-2.3,0.96c-0.52,0.19-1.04,0.39-1.57,0.55c-0.46,0.14-0.91,0.27-1.37,0.39c-0.51,0.14-1.03,0.23-1.53,0.4
			c-0.21,0.07-0.45-0.05-0.63,0.13c-0.39-0.01-0.76,0.16-1.13,0.19c-0.36,0.03-0.7,0.13-1.06,0.14c-0.21,0-0.43,0.06-0.64,0.1
			c-0.2,0.03-0.42-0.08-0.59,0.1c-0.02,0.02-0.07,0-0.1,0c-0.36,0.01-0.72-0.05-1.07,0.11c-0.75-0.08-1.48,0.12-2.23,0.11
			c-1.96-0.02-3.91-0.01-5.87-0.01C53.17,73.31,53.05,73.31,52.9,73.31z"/>
	</g>
</g>
</svg>
