<?xml version="1.0" encoding="utf-8"?>
<!-- Generator: Adobe Illustrator 23.1.1, SVG Export Plug-In . SVG Version: 6.00 Build 0)  -->
<svg version="1.1" id="Lager_1" xmlns="http://www.w3.org/2000/svg" xmlns:xlink="http://www.w3.org/1999/xlink" x="0px" y="0px"
	 viewBox="0 0 123.6 114.08" style="enable-background:new 0 0 123.6 114.08;" xml:space="preserve">
<style type="text/css">
	.st0{fill:#FFFFFF;}
	.st1{fill:#616160;}
</style>
<g>
	<g>
		<circle class="st0" cx="46.87" cy="26.09" r="26.09"/>
	</g>
	<g>
		<polygon class="st0" points="71.98,99 71.98,99 71.98,99 		"/>
	</g>
	<g>
		<path class="st0" d="M66.37,104.8c0.23-0.42,0.32-0.71,0.35-0.85c-0.03-0.05-0.09-0.13-0.19-0.24c-0.09-0.1-0.16-0.17-0.2-0.2
			c-0.12,0-0.4,0.03-0.86,0.2l-5.21,1.8l-3.1-4.55c-2.01-2.96-4.34-10.23-4.37-13.65l-0.05-5.45l5.23-1.53
			c0.48-0.14,0.76-0.29,0.88-0.37c0.01-0.06,0.03-0.17,0.04-0.34c0-0.1,0-0.18,0-0.22c-0.1-0.09-0.35-0.27-0.78-0.47l-5.75-2.67
			l1.93-6.04c1.19-3.72,2.95-7.24,5.23-10.49c-6.46,2.71-17.52,4.6-31.56-3.74c-0.16-0.09-1.54,0.99-1.67,1.08
			c-1.5,1.03-2.95,2.14-4.34,3.3c-4.64,3.87-8.77,8.37-12.18,13.35c-1.74,2.54-3.29,5.21-4.63,7.99c-0.71,1.47-1.35,2.97-1.93,4.5
			c-0.55,1.45-1.11,2.93-1.61,4.43c-0.67,2.01-1.22,4.05-1.46,6.13c-0.4,3.47,0.11,7.12,2.19,10.02c3.21,4.48,9.04,6.03,14.24,6.57
			c1.4,0.14,2.81,0.23,4.22,0.23H67.8l-4.43-3.25L66.37,104.8z"/>
	</g>
	<g>
		<path class="st0" d="M117.42,85.19c0.2-4.04,2.41-6.44,6.18-7.55c-0.07-2.23-1.97-8.24-3.07-9.72c-3.49,1.27-6.64,0.75-9.07-2.14
			c-2.44-2.9-2.36-6.09-0.5-9.34c-2.77-2.06-5.8-3.63-9.09-4.71c-1.44,3.23-3.85,5.12-7.38,5.03c-4.07-0.1-6.5-2.43-7.56-6.31
			c-3.43,0.53-6.68,1.55-9.75,3.12c1.27,3.36,0.87,6.39-1.73,8.82c-2.93,2.73-6.24,2.78-9.68,0.85c-2.04,2.78-3.59,5.8-4.64,9.09
			c3.26,1.52,5.11,3.99,4.94,7.56c-0.18,3.86-2.44,6.21-6.09,7.27c0.02,2,1.94,7.92,3.12,9.67c3.4-1.17,6.47-0.66,8.86,2.1
			c2.44,2.82,2.49,5.97,0.72,9.23c2.78,2.04,5.79,3.59,9.05,4.64c1.56-3.18,4.04-4.94,7.53-4.76c3.79,0.19,6.13,2.38,7.25,6.01
			c3.4-0.49,6.64-1.52,9.71-3.06c-1.37-3.58-0.19-6.95,2.02-8.79c2.9-2.43,6.04-2.53,9.35-0.74c2.06-2.75,3.63-5.75,4.71-9.01
			C118.89,90.55,117.27,88.14,117.42,85.19z M107.02,83.6c-0.73,8.44-8.15,14.67-16.61,13.94c-8.4-0.72-14.67-8.15-13.96-16.56
			c0.71-8.45,8.18-14.71,16.65-13.97C101.52,67.76,107.75,75.18,107.02,83.6z"/>
	</g>
</g>
</svg>
