<?xml version="1.0" encoding="utf-8"?>
<!-- Generator: Adobe Illustrator 23.0.2, SVG Export Plug-In . SVG Version: 6.00 Build 0)  -->
<svg version="1.1" id="Lager_1" xmlns="http://www.w3.org/2000/svg" xmlns:xlink="http://www.w3.org/1999/xlink" x="0px" y="0px"
	 viewBox="0 0 107.86 28.35" style="enable-background:new 0 0 107.86 28.35;" xml:space="preserve">
<style type="text/css">
	.st0{fill:#FFFFFF;}
</style>
<g>
	<path class="st0" d="M14.17,28.35c7.83,0,14.17-6.35,14.17-14.17C28.35,6.35,22,0,14.17,0C6.35,0,0,6.35,0,14.17
		C0,22,6.35,28.35,14.17,28.35z"/>
	<path class="st0" d="M53.93,28.35c7.83,0,14.17-6.35,14.17-14.17C68.1,6.35,61.76,0,53.93,0C46.1,0,39.76,6.35,39.76,14.17
		C39.76,22,46.1,28.35,53.93,28.35z"/>
	<path class="st0" d="M93.68,28.35c7.83,0,14.17-6.35,14.17-14.17C107.86,6.35,101.51,0,93.68,0c-7.83,0-14.17,6.35-14.17,14.17
		C79.51,22,85.86,28.35,93.68,28.35z"/>
</g>
</svg>
