<?xml version="1.0" encoding="utf-8"?>
<!-- Generator: Adobe Illustrator 23.0.2, SVG Export Plug-In . SVG Version: 6.00 Build 0)  -->
<svg version="1.1" id="Lager_1" xmlns="http://www.w3.org/2000/svg" xmlns:xlink="http://www.w3.org/1999/xlink" x="0px" y="0px"
	 viewBox="0 0 113.08 113.13" style="enable-background:new 0 0 113.08 113.13;" xml:space="preserve">
<style type="text/css">
	.st0{fill:#FFFFFF;}
</style>
<path class="st0" d="M56.55,0C25.13,0.24-0.01,25.21,0,56.62c0.01,31.34,25.1,56.48,56.47,56.52c31.44,0.04,56.6-25.15,56.61-56.5
	C113.1,25.17,87.9,0.24,56.55,0z M82.98,88.77c-0.25,1.99-2.5,3.4-4.43,2.76c-1.62-0.54-3.18-1.31-4.73-2.03
	c-7.47-3.5-15.32-5.4-23.55-5.77c-6.88-0.31-13.6,0.58-20.2,2.47c-3.77,1.08-6.25-1.1-5.53-4.97c0.2-1.08,0.57-2.18,1.14-3.11
	c0.4-0.65,1.2-1.24,1.94-1.45c6.58-1.94,13.3-2.94,21.82-2.95c8.34,0.12,17.93,2.09,27.03,6.28c1.2,0.55,2.37,1.18,3.58,1.69
	c1.59,0.66,2.53,1.87,2.8,3.5C83.05,86.36,83.13,87.6,82.98,88.77z M89.65,68.79c-0.48,0.91-1.12,1.75-1.77,2.55
	c-1.1,1.37-2.46,1.42-3.99,0.72c-2.88-1.32-5.73-2.7-8.68-3.83c-9.28-3.55-18.92-5.14-28.86-4.97c-6.42,0.11-12.69,1.06-18.9,2.6
	c-3.55,0.88-6.19-1.14-6.14-4.54c0.05-3.34,1.65-5.34,4.81-6.1c8.55-2.07,17.21-3.04,26.01-2.55c8.13,0.45,16.1,1.83,23.75,4.63
	c3.91,1.43,7.72,3.11,11.53,4.79C90.21,63.33,91.09,66.07,89.65,68.79z M92.02,51.24c-1.35-0.25-2.63-0.93-3.89-1.53
	c-7.5-3.58-15.38-6.03-23.54-7.47c-8.85-1.56-17.79-2-26.73-0.91c-4.33,0.53-8.63,1.36-12.92,2.16c-3.55,0.66-6.2-0.79-6.84-3.94
	c-0.64-3.16,1.47-6.24,4.76-6.78c5.46-0.89,10.91-1.81,16.39-2.52c2.82-0.36,5.69-0.29,8.53-0.42c10.35,0,20.52,1.4,30.37,4.5
	c5.71,1.79,11.22,4.26,16.76,6.59c2.61,1.09,3.65,3.71,2.89,6.28C97.02,49.82,94.51,51.7,92.02,51.24z"/>
</svg>
