<?xml version="1.0" encoding="utf-8"?>
<!-- Generator: Adobe Illustrator 23.0.2, SVG Export Plug-In . SVG Version: 6.00 Build 0)  -->
<svg version="1.1" id="Lager_1" xmlns="http://www.w3.org/2000/svg" xmlns:xlink="http://www.w3.org/1999/xlink" x="0px" y="0px"
	 viewBox="0 0 113.58 56.51" style="enable-background:new 0 0 113.58 56.51;" xml:space="preserve">
<style type="text/css">
	.st0{fill:#FFFFFF;}
</style>
<g>
	<g>
		<path class="st0" d="M100.27,12.27c0,0-10.32-9.3-10.82-9.74l0,0h0C87.64,0.96,85.29,0,82.72,0H30.87c-2.57,0-4.92,0.96-6.74,2.53
			h0l0,0c-0.5,0.44-10.82,9.74-10.82,9.74H100.27z"/>
		<path class="st0" d="M100.53,18.41H13.05C5.87,18.41,0,24.28,0,31.46v12c0,7.18,5.87,13.05,13.05,13.05h87.48
			c7.18,0,13.05-5.87,13.05-13.05v-12C113.58,24.28,107.71,18.41,100.53,18.41z M26.87,41.17H15.99c-2.04,0-3.71-1.67-3.71-3.71
			c0-2.04,1.67-3.71,3.71-3.71h10.88c2.04,0,3.71,1.67,3.71,3.71C30.58,39.5,28.91,41.17,26.87,41.17z M50.44,41.17H39.56
			c-2.04,0-3.71-1.67-3.71-3.71c0-2.04,1.67-3.71,3.71-3.71h10.88c2.04,0,3.71,1.67,3.71,3.71C54.15,39.5,52.48,41.17,50.44,41.17z
			 M74.02,41.17H63.14c-2.04,0-3.71-1.67-3.71-3.71c0-2.04,1.67-3.71,3.71-3.71h10.88c2.04,0,3.71,1.67,3.71,3.71
			C77.73,39.5,76.06,41.17,74.02,41.17z M97.6,41.17H86.71c-2.04,0-3.71-1.67-3.71-3.71c0-2.04,1.67-3.71,3.71-3.71H97.6
			c2.04,0,3.71,1.67,3.71,3.71C101.3,39.5,99.64,41.17,97.6,41.17z"/>
	</g>
</g>
</svg>
