<?xml version="1.0" encoding="utf-8"?>
<!-- Generator: Adobe Illustrator 23.0.2, SVG Export Plug-In . SVG Version: 6.00 Build 0)  -->
<svg version="1.1" id="Lager_1" xmlns="http://www.w3.org/2000/svg" xmlns:xlink="http://www.w3.org/1999/xlink" x="0px" y="0px"
	 viewBox="0 0 113.39 113.39" style="enable-background:new 0 0 113.39 113.39;" xml:space="preserve">
<style type="text/css">
	.st0{fill:#FFFFFF;}
</style>
<g>
	<path class="st0" d="M109.87,113.39H92.67v-11.83h8.88v-8.88h11.83v17.19C113.39,111.81,111.81,113.39,109.87,113.39z"/>
	<rect x="44.7" y="101.55" class="st0" width="23.99" height="11.83"/>
	<path class="st0" d="M20.71,113.39H3.52c-1.94,0-3.52-1.58-3.52-3.52V92.67h11.83v8.88h8.88V113.39z"/>
	<rect y="44.7" class="st0" width="11.83" height="23.99"/>
	<path class="st0" d="M11.83,20.71H0V3.52C0,1.58,1.58,0,3.52,0h17.19v11.83h-8.88V20.71z"/>
	<rect x="44.7" class="st0" width="23.99" height="11.83"/>
	<path class="st0" d="M113.39,20.71h-11.83v-8.88h-8.88V0h17.19c1.94,0,3.52,1.58,3.52,3.52V20.71z"/>
	<rect x="101.55" y="44.7" class="st0" width="11.83" height="23.99"/>
</g>
</svg>
