<?xml version="1.0" encoding="utf-8"?>
<!-- Generator: Adobe Illustrator 23.0.2, SVG Export Plug-In . SVG Version: 6.00 Build 0)  -->
<svg version="1.1" id="Lager_1" xmlns="http://www.w3.org/2000/svg" xmlns:xlink="http://www.w3.org/1999/xlink" x="0px" y="0px"
	 viewBox="0 0 113.59 113.59" style="enable-background:new 0 0 113.59 113.59;" xml:space="preserve">
<style type="text/css">
	.st0{fill:#FFFFFF;}
</style>
<g>
	<circle class="st0" cx="56.79" cy="56.79" r="25.49"/>
	<g>
		<g>
			<path class="st0" d="M58.79,18.92H54.8c-1.1,0-1.99-0.89-1.99-1.99V1.99C52.81,0.89,53.7,0,54.8,0l3.99,0
				c1.1,0,1.99,0.89,1.99,1.99v14.94C60.78,18.03,59.89,18.92,58.79,18.92z"/>
			<path class="st0" d="M58.79,113.59H54.8c-1.1,0-1.99-0.89-1.99-1.99V96.66c0-1.1,0.89-1.99,1.99-1.99h3.99
				c1.1,0,1.99,0.89,1.99,1.99v14.94C60.78,112.7,59.89,113.59,58.79,113.59z"/>
		</g>
		<g>
			<path class="st0" d="M31.43,28.6l-2.82,2.82c-0.78,0.78-2.04,0.78-2.81,0L15.22,20.86c-0.78-0.78-0.78-2.04,0-2.81l2.82-2.82
				c0.78-0.78,2.04-0.78,2.81,0l10.57,10.57C32.21,26.57,32.21,27.83,31.43,28.6z"/>
			<path class="st0" d="M98.37,95.54l-2.82,2.82c-0.78,0.78-2.04,0.78-2.81,0L82.16,87.8c-0.78-0.78-0.78-2.04,0-2.81l2.82-2.82
				c0.78-0.78,2.04-0.78,2.81,0l10.57,10.57C99.14,93.5,99.14,94.77,98.37,95.54z"/>
		</g>
		<g>
			<path class="st0" d="M18.92,54.8v3.99c0,1.1-0.89,1.99-1.99,1.99H1.99c-1.1,0-1.99-0.89-1.99-1.99l0-3.99
				c0-1.1,0.89-1.99,1.99-1.99h14.94C18.03,52.81,18.92,53.7,18.92,54.8z"/>
			<path class="st0" d="M113.59,54.8v3.99c0,1.1-0.89,1.99-1.99,1.99H96.66c-1.1,0-1.99-0.89-1.99-1.99V54.8
				c0-1.1,0.89-1.99,1.99-1.99h14.94C112.7,52.81,113.59,53.7,113.59,54.8z"/>
		</g>
		<g>
			<path class="st0" d="M28.6,82.16l2.82,2.82c0.78,0.78,0.78,2.04,0,2.81L20.86,98.37c-0.78,0.78-2.04,0.78-2.81,0l-2.82-2.82
				c-0.78-0.78-0.78-2.04,0-2.81l10.57-10.57C26.57,81.38,27.83,81.38,28.6,82.16z"/>
			<path class="st0" d="M95.54,15.22l2.82,2.82c0.78,0.78,0.78,2.04,0,2.81L87.8,31.43c-0.78,0.78-2.04,0.78-2.81,0l-2.82-2.82
				c-0.78-0.78-0.78-2.04,0-2.81l10.57-10.57C93.5,14.45,94.77,14.45,95.54,15.22z"/>
		</g>
	</g>
</g>
</svg>
