<?xml version="1.0" encoding="utf-8"?>
<!-- Generator: Adobe Illustrator 23.0.2, SVG Export Plug-In . SVG Version: 6.00 Build 0)  -->
<svg version="1.1" xmlns="http://www.w3.org/2000/svg" xmlns:xlink="http://www.w3.org/1999/xlink" x="0px" y="0px"
	 viewBox="0 0 113.39 113.39" style="enable-background:new 0 0 113.39 113.39;" xml:space="preserve">
<style type="text/css">
	.st0{fill:#F4981C;}
	.st1{fill:#2AB8C8;}
	.st2{fill:#1A7580;}
	.st3{fill:#FFFFFF;}
	.st4{fill:#A45A17;}
	.st5{fill:#A45A16;}
</style>
<g id="Background">
	<circle cx="56.69" cy="56.69" r="56.69"/>
</g>
<g id="Shadow">
	<path class="st4" d="M90.05,77.08l0.62-9.91l-9.45-37.41L79,27.65H34.96l-3.53,1.18L0.11,60.13c1.72,28.76,24.87,51.74,53.71,53.18
		L90.05,77.08z"/>
</g>
<g id="Icon">
	<g>
		<path class="st3" d="M92.31,71.41c-0.09-0.86-0.28-1.74-0.51-2.61c-0.5-1.94-0.92-3.81-1.42-5.75c-1.41-5.4-2.81-10.81-4.22-16.21
			c-1.19-4.56-2.37-9.12-3.56-13.68c-0.23-0.89-0.37-1.41-0.7-2.68c-0.4-1.52-1.37-2.99-3.05-3.1c-2.34-0.16-4.84-0.07-7.19-0.07
			c-5.19,0-10.38,0-15.56,0c-5.13,0-10.27,0-15.4,0c-1.78,0-3.65-0.09-5.59-0.07c-2.27,0.02-3.78,0.83-4.34,3.15
			c-0.64,2.62-1.28,5.23-1.92,7.85c-1.33,5.44-2.66,10.88-4,16.32c-1.14,4.67-2.03,9.35-3.18,14.02c-0.54,2.22-1.05,4.29-0.08,6.52
			c0.41,0.94,1.03,1.81,1.86,2.4c1.02,0.72,2.13,0.87,3.34,0.8c1.35-0.08,2.73-0.02,4.09-0.02c4.76,0,9.52,0,14.28,0
			c1.51,0,3.02,0,4.53,0l-1.23,6.32c0,0.85,0.69,1.55,1.52,1.55h13.46c0.84,0,1.52-0.7,1.52-1.55l-1.23-6.32c4.89,0,9.78,0,14.67,0
			c1.78,0,3.56,0,5.34,0c2.66,0,5.27,0.23,7.22-2.04C92.23,74.76,92.48,73.11,92.31,71.41z M87.08,73.38H25.74
			c-1.63,0-2.97-1.34-2.97-2.97l8.9-39.33c0.43-1.53,1.34-2.97,2.97-2.97h43.53c1.63,0,2.49,1.36,2.97,2.97l8.9,39.33
			C90.05,72.05,88.71,73.38,87.08,73.38z"/>
		<path class="st3" d="M44.41,54.8H30.9c-0.82,0-1.48,0.67-1.48,1.48l-2.69,12.49c0,0.82,0.67,1.48,1.48,1.48h15.46
			c0.82,0,1.48-0.67,1.48-1.48l0.74-12.49C45.9,55.47,45.23,54.8,44.41,54.8z"/>
		<path class="st3" d="M63.55,54.8H49.27c-0.82,0-1.48,0.67-1.48,1.48L47.2,68.78c0,0.82,0.67,1.48,1.48,1.48h15.46
			c0.82,0,1.48-0.67,1.48-1.48l-0.59-12.49C65.04,55.47,64.37,54.8,63.55,54.8z"/>
		<path class="st3" d="M68.41,54.8c-0.82,0-1.48,0.67-1.48,1.48l0.74,12.49c0,0.82,0.67,1.48,1.48,1.48h15.46
			c0.82,0,1.48-0.67,1.48-1.48l-2.6-12.49c0-0.82-0.67-1.48-1.48-1.48H68.41z"/>
		<path class="st3" d="M45.71,40.89H33.41c-0.82,0-1.48,0.67-1.48,1.48l-2.23,9.31c0,0.82,0.67,1.48,1.48,1.48h13.97
			c0.82,0,1.48-0.67,1.48-1.48l0.56-9.31C47.2,41.56,46.53,40.89,45.71,40.89z"/>
		<path class="st3" d="M49.55,53.16H63c0.82,0,1.48-0.67,1.48-1.48l-0.65-9.31c0-0.82-0.67-1.48-1.48-1.48H50.2
			c-0.82,0-1.48,0.67-1.48,1.48l-0.65,9.31C48.06,52.5,48.73,53.16,49.55,53.16z"/>
		<path class="st3" d="M79.32,40.89H67.11c-0.82,0-1.48,0.67-1.48,1.48l0.65,9.31c0,0.82,0.67,1.48,1.48,1.48h13.51
			c0.82,0,1.48-0.67,1.48-1.48l-1.95-9.31C80.8,41.56,80.14,40.89,79.32,40.89z"/>
		<path class="st3" d="M34.43,39.72h11.75c0.82,0,1.48-0.67,1.48-1.48l0.4-6.99c0-0.82-0.67-1.48-1.48-1.48H36.01
			c-0.82,0-1.48,0.67-1.48,1.48l-1.58,6.99C32.94,39.05,33.61,39.72,34.43,39.72z"/>
		<path class="st3" d="M50.47,39.72h11.69c0.82,0,1.48-0.67,1.48-1.48l-0.46-6.99c0-0.82-0.67-1.48-1.48-1.48H50.94
			c-0.82,0-1.48,0.67-1.48,1.48l-0.46,6.99C48.99,39.05,49.66,39.72,50.47,39.72z"/>
		<path class="st3" d="M66.78,39.72h11.61c0.82,0,1.48-0.67,1.48-1.48l-1.48-6.99c0-0.82-0.67-1.48-1.48-1.48H66.37
			c-0.82,0-1.48,0.67-1.48,1.48l0.42,6.99C65.3,39.05,65.97,39.72,66.78,39.72z"/>
	</g>
</g>
</svg>
