<?xml version="1.0" encoding="utf-8"?>
<!-- Generator: Adobe Illustrator 24.0.1, SVG Export Plug-In . SVG Version: 6.00 Build 0)  -->
<svg version="1.1" xmlns="http://www.w3.org/2000/svg" xmlns:xlink="http://www.w3.org/1999/xlink" x="0px" y="0px"
	 viewBox="0 0 113.39 113.39" style="enable-background:new 0 0 113.39 113.39;" xml:space="preserve">
<style type="text/css">
	.st0{fill:#F4981C;}
	.st1{fill:#A45A17;}
	.st2{fill:#A45A16;}
	.st3{fill:#FFFFFF;}
	.st4{fill:none;stroke:#FFFFFF;stroke-width:4;stroke-miterlimit:10;}
	.st5{fill:none;stroke:#FFFFFF;stroke-width:12;stroke-miterlimit:10;}
	.st6{fill:none;stroke:#FFFFFF;stroke-miterlimit:10;}
</style>
<g id="Background">
	<circle class="st0" cx="56.69" cy="56.69" r="56.69"/>
</g>
<g id="Shadow">
	<path class="st1" d="M77.37,77.75l5.26-10.93l2.31-14.49L81.4,45.5l-4.21-4.83l-2.27-4.12l-3.96-4.24l-10.43-1.89h-6.82l-9.12,0.77
		L31.18,41.84L1.87,71.15c5.28,20.05,21.26,35.75,41.46,40.63L77.37,77.75z"/>
</g>
<g id="Icon">
	<path class="st3" d="M56.69,27.18c-16.3,0-29.52,13.21-29.52,29.52s13.21,29.52,29.52,29.52c16.3,0,29.52-13.21,29.52-29.52
		S72.99,27.18,56.69,27.18z M65.56,32.31c4.25,1.55,7.98,4.17,10.85,7.54c-1.35,3.94-3.46,6.68-5.54,8.56
		c-1.92-3.28-4.94-5.84-8.56-7.15l-0.08-0.02c0.38-2.77,0.24-6.23-1.26-10.12C62.55,31.37,64.09,31.78,65.56,32.31z M40.02,36.83
		c3.36-2.82,7.45-4.81,11.94-5.64c2.74,3.15,4.06,6.35,4.65,9.08c-3.99,0.02-7.64,1.46-10.48,3.84c-0.02,0.02-0.04,0.04-0.05,0.05
		c-2.21-1.71-5.28-3.32-9.4-3.97C37.69,38.97,38.81,37.85,40.02,36.83z M32.4,65.78c-0.56-1.47-0.98-3-1.25-4.58
		c-0.26-1.46-0.39-2.97-0.39-4.51c0-3.04,0.52-5.96,1.48-8.67c4.09-0.79,7.52-0.34,10.19,0.53c-1.38,2.4-2.16,5.18-2.16,8.14
		c0,0.98,0.09,1.93,0.25,2.85l0.02,0.07C37.94,60.68,35.02,62.54,32.4,65.78z M47.82,81.07c-4.25-1.55-7.97-4.17-10.84-7.54
		c1.35-3.94,3.46-6.68,5.54-8.56c1.92,3.28,4.94,5.84,8.56,7.15l0.08,0.02c-0.38,2.77-0.24,6.23,1.26,10.12
		C50.83,82.01,49.29,81.6,47.82,81.07z M52.55,68.07c-2.69-0.98-4.93-2.88-6.34-5.32c-0.7-1.2-1.19-2.53-1.44-3.95
		c-0.12-0.68-0.18-1.38-0.18-2.1c0-2.2,0.59-4.27,1.62-6.05c0.71-1.23,1.62-2.32,2.7-3.22c2.1-1.77,4.81-2.83,7.78-2.83
		c1.46,0,2.85,0.26,4.14,0.73c2.69,0.98,4.93,2.88,6.34,5.32c0.7,1.2,1.19,2.53,1.44,3.95c0.12,0.68,0.18,1.38,0.18,2.1
		c0,2.2-0.59,4.27-1.62,6.05c-0.71,1.23-1.62,2.32-2.7,3.22c-2.1,1.77-4.81,2.83-7.78,2.83C55.24,68.79,53.84,68.54,52.55,68.07z
		 M73.36,76.56c-3.36,2.82-7.45,4.81-11.94,5.64c-2.74-3.15-4.06-6.35-4.65-9.08c3.99-0.02,7.64-1.46,10.48-3.84
		c0.02-0.02,0.04-0.04,0.05-0.05c2.21,1.71,5.28,3.32,9.4,3.97C75.7,74.41,74.58,75.54,73.36,76.56z M70.96,64.83
		c1.38-2.4,2.16-5.18,2.16-8.14c0-0.98-0.09-1.93-0.25-2.85l-0.02-0.07c2.59-1.06,5.52-2.92,8.14-6.16c0.56,1.47,0.98,3,1.25,4.58
		c0.26,1.46,0.39,2.97,0.39,4.51c0,3.04-0.52,5.95-1.48,8.66C77.05,66.15,73.62,65.69,70.96,64.83z"/>
</g>
</svg>
