<?xml version="1.0" encoding="utf-8"?>
<!-- Generator: Adobe Illustrator 23.0.2, SVG Export Plug-In . SVG Version: 6.00 Build 0)  -->
<svg version="1.1" xmlns="http://www.w3.org/2000/svg" xmlns:xlink="http://www.w3.org/1999/xlink" x="0px" y="0px"
	 viewBox="0 0 113.39 113.39" style="enable-background:new 0 0 113.39 113.39;" xml:space="preserve">
<style type="text/css">
	.st0{fill:#F4981C;}
	.st1{fill:#2AB8C8;}
	.st2{fill:#1A7580;}
	.st3{fill:#FFFFFF;}
	.st4{fill:#A45A17;}
	.st5{fill:#A45A16;}
</style>
<g id="Background">
	<circle cx="56.69" cy="56.69" r="56.69"/>
</g>
<g id="Shadow">
	<path class="st4" d="M93.4,72.4l-10.82-1.73l0.17-13.98l-1.03-19.01L70.1,37.86l-40.35-2.38L0.57,64.66
		c3.69,26.2,25.28,46.64,52.01,48.56L93.4,72.4z"/>
</g>
<g id="Icon">
	<path class="st3" d="M84.57,68.43V37.91c0-2.04-1.67-3.72-3.72-3.72H32.53c-2.04,0-3.72,1.67-3.72,3.72v30.51h-9.14v2.94
		c0,2.04,3.51,3.72,7.81,3.72H85.9c4.29,0,7.81-1.67,7.81-3.72v-2.94H84.57z M79.93,68.4H61.55v2.27h-9.71V68.4H33.46V38.56h46.47
		V68.4z"/>
</g>
</svg>
