<?xml version="1.0" encoding="utf-8"?>
<!-- Generator: Adobe Illustrator 23.0.2, SVG Export Plug-In . SVG Version: 6.00 Build 0)  -->
<svg version="1.1" xmlns="http://www.w3.org/2000/svg" xmlns:xlink="http://www.w3.org/1999/xlink" x="0px" y="0px"
	 viewBox="0 0 113.39 113.39" style="enable-background:new 0 0 113.39 113.39;" xml:space="preserve">
<style type="text/css">
	.st0{fill:#F4981C;}
	.st1{fill:#2AB8C8;}
	.st2{fill:#1A7580;}
	.st3{fill:#FFFFFF;}
	.st4{fill:#A45A17;}
	.st5{fill:#A45A16;}
</style>
<g id="Background">
	<circle cx="56.69" cy="56.69" r="56.69"/>
</g>
<g id="Shadow">
	<path class="st4" d="M77.37,77.75l3.5-14.02l1.96-9.12l-1.96-7.29l-3.68-6.66l-5.13-4.1l-5.13-4.05l-6.41-2.1l-8.46,0.77
		l-7.43,3.33l-13.46,7.33L1.87,71.15c5.28,20.05,21.26,35.75,41.46,40.63L77.37,77.75z"/>
</g>
<g id="Icon">
	<path class="st3" d="M77.56,35.82c-11.53-11.53-30.22-11.53-41.74,0c-11.53,11.53-11.53,30.22,0,41.74s30.22,11.53,41.74,0
		C89.09,66.04,89.09,47.35,77.56,35.82z M76.62,56.69h-7.77c-0.67,0-1.23-0.51-1.28-1.18c-0.32-4.21-2.33-8.32-6.05-11.2
		c-5.76-4.46-14.06-4.24-19.6,0.48c-3.53,3.01-5.36,7.19-5.49,11.41c-0.01,0.27-0.23,0.48-0.5,0.48c-0.28,0-0.51-0.23-0.5-0.51
		c0.14-6.01,2.81-11.97,8-16.14c7.73-6.2,18.99-6.14,26.66,0.13c4.84,3.95,7.44,9.47,7.81,15.12
		C77.96,56.05,77.38,56.69,76.62,56.69z"/>
</g>
</svg>
