<?xml version="1.0" encoding="utf-8"?>
<!-- Generator: Adobe Illustrator 23.0.2, SVG Export Plug-In . SVG Version: 6.00 Build 0)  -->
<svg version="1.1" xmlns="http://www.w3.org/2000/svg" xmlns:xlink="http://www.w3.org/1999/xlink" x="0px" y="0px"
	 viewBox="0 0 113.39 113.39" style="enable-background:new 0 0 113.39 113.39;" xml:space="preserve">
<style type="text/css">
	.st0{fill:#F4981C;}
	.st1{fill:#2AB8C8;}
	.st2{fill:#1A7580;}
	.st3{fill:#FFFFFF;}
	.st4{fill:#A45A17;}
	.st5{fill:#A45A16;}
</style>
<g id="Background">
	<circle cx="56.69" cy="56.69" r="56.69"/>
</g>
<g id="Shadow">
	<path class="st4" d="M72.94,82.07l-0.61-1.6L56.69,80.8v-5.5l2.14-2.11l1.99-1.16h16.01h6.5h3.33L86,65.3V36.8l-60.14,0.01
		L0.28,62.39c2.41,24.12,19.93,43.78,42.96,49.38L72.94,82.07z"/>
</g>
<g id="Icon">
	<path class="st3" d="M85.05,35.32H28.34c-1.56,0-2.83,1.28-2.83,2.83v34.21c0,1.56,1.28,2.83,2.83,2.83h26.17v4.38H40.44
		c-0.69,0-1.25,0.56-1.25,1.25s0.56,1.25,1.25,1.25h32.5c0.69,0,1.25-0.56,1.25-1.25s-0.56-1.25-1.25-1.25H58.88v-4.38h26.17
		c1.56,0,2.83-1.28,2.83-2.83V38.15C87.88,36.59,86.6,35.32,85.05,35.32z M56.69,73.19c-0.64,0-1.16-0.52-1.16-1.16
		c0-0.64,0.52-1.16,1.16-1.16c0.64,0,1.16,0.52,1.16,1.16C57.85,72.68,57.33,73.19,56.69,73.19z M84.63,69.57H28.76V38.32h55.88
		V69.57z"/>
</g>
</svg>
