<?xml version="1.0" encoding="utf-8"?>
<!-- Generator: Adobe Illustrator 23.0.2, SVG Export Plug-In . SVG Version: 6.00 Build 0)  -->
<svg version="1.1" xmlns="http://www.w3.org/2000/svg" xmlns:xlink="http://www.w3.org/1999/xlink" x="0px" y="0px"
	 viewBox="0 0 113.39 113.39" style="enable-background:new 0 0 113.39 113.39;" xml:space="preserve">
<style type="text/css">
	.st0{fill:#F4981C;}
	.st1{fill:#2AB8C8;}
	.st2{fill:#1A7580;}
	.st3{fill:#FFFFFF;}
	.st4{fill:#A45A17;}
	.st5{fill:#A45A16;}
</style>
<g id="Background">
	<circle cx="56.69" cy="56.69" r="56.69"/>
</g>
<g id="Shadow">
	<path class="st4" d="M75.93,85.68l-5.21-33.49l-2.95-14.18l-8.07-1.2l-21.65-3.97L1.46,69.43c5.21,22.66,23.99,40.13,47.33,43.39
		L75.93,85.68z"/>
</g>
<g id="Icon">
	<path class="st3" d="M71.68,31.36h-4.3v-3.33c0-1.42-1.41-2.58-3.13-2.58H49.13c-1.72,0-3.13,1.16-3.13,2.58v3.33h-4.3
		c-2.58,0-4.69,1.74-4.69,3.87v48.84c0,2.13,2.11,3.87,4.69,3.87h29.97c2.58,0,4.69-1.74,4.69-3.87V35.23
		C76.37,33.1,74.26,31.36,71.68,31.36z M51.61,76.98L56,61.03H45.61l15.7-20.64L56.83,56.2h10.95L51.61,76.98z"/>
</g>
</svg>
