<?xml version="1.0" encoding="utf-8"?>
<!-- Generator: Adobe Illustrator 23.0.2, SVG Export Plug-In . SVG Version: 6.00 Build 0)  -->
<svg version="1.1" xmlns="http://www.w3.org/2000/svg" xmlns:xlink="http://www.w3.org/1999/xlink" x="0px" y="0px"
	 viewBox="0 0 113.39 113.39" style="enable-background:new 0 0 113.39 113.39;" xml:space="preserve">
<style type="text/css">
	.st0{fill:#F4981C;}
	.st1{fill:#2AB8C8;}
	.st2{fill:#1A7580;}
	.st3{fill:#FFFFFF;}
	.st4{fill:#A45A17;}
	.st5{fill:#A45A16;}
</style>
<g id="Background">
	<circle cx="56.69" cy="56.69" r="56.69"/>
</g>
<g id="Shadow">
	<path class="st4" d="M75.3,82.97l-0.82-52.46l-36.84,0.5L1.06,67.59c4.4,22.61,22.24,40.4,44.86,44.76L75.3,82.97z"/>
</g>
<g id="Icon">
	<g>
		<path class="st3" d="M56.69,55.6c-5.99,0-10.84,4.85-10.84,10.84s4.85,10.84,10.84,10.84s10.84-4.85,10.84-10.84
			S62.68,55.6,56.69,55.6z M56.69,69.59c-1.74,0-3.15-1.41-3.15-3.15s1.41-3.15,3.15-3.15c1.74,0,3.15,1.41,3.15,3.15
			S58.43,69.59,56.69,69.59z"/>
		<path class="st3" d="M56.69,44.07c1.74,0,3.15-1.41,3.15-3.15c0-1.74-1.41-3.15-3.15-3.15c-1.74,0-3.15,1.41-3.15,3.15
			C53.54,42.66,54.95,44.07,56.69,44.07z"/>
		<path class="st3" d="M72.61,26.63H40.77c-2.75,0-5,2.25-5,5v50.13c0,2.75,2.25,5,5,5h31.84c2.75,0,5-2.25,5-5V31.63
			C77.61,28.88,75.36,26.63,72.61,26.63z M56.69,33.92c3.86,0,7,3.13,7,7c0,3.86-3.13,7-7,7s-7-3.13-7-7
			C49.7,37.05,52.83,33.92,56.69,33.92z M56.69,81.13c-8.11,0-14.69-6.58-14.69-14.69c0-8.11,6.58-14.69,14.69-14.69
			s14.69,6.58,14.69,14.69C71.38,74.55,64.8,81.13,56.69,81.13z"/>
	</g>
</g>
</svg>
