<?xml version="1.0" encoding="utf-8"?>
<!-- Generator: Adobe Illustrator 23.0.2, SVG Export Plug-In . SVG Version: 6.00 Build 0)  -->
<svg version="1.1" xmlns="http://www.w3.org/2000/svg" xmlns:xlink="http://www.w3.org/1999/xlink" x="0px" y="0px"
	 viewBox="0 0 113.39 113.39" style="enable-background:new 0 0 113.39 113.39;" xml:space="preserve">
<style type="text/css">
	.st0{fill:#F4981C;}
	.st1{fill:#2AB8C8;}
	.st2{fill:#1A7580;}
	.st3{fill:#FFFFFF;}
	.st4{fill:#A45A17;}
	.st5{fill:#A45A16;}
</style>
<g id="Background">
	<circle cx="56.69" cy="56.69" r="56.69"/>
</g>
<g id="Shadow">
	<path class="st4" d="M88.11,68.45l-0.5-10.83l0.09-6.17l-5.74-6.04l-4.85-2.28h-6.67h-10l-16-2L31.43,45.4l-5.32,5.55L2.79,74.27
		c6.17,18.93,22.02,33.47,41.71,37.79L88.11,68.45z"/>
</g>
<g id="Icon">
	<g>
		<path class="st3" d="M81.96,45.4c0,0-6-5.41-6.29-5.66l0,0h0c-1.05-0.91-2.42-1.47-3.91-1.47H41.63c-1.49,0-2.86,0.56-3.91,1.47h0
			l0,0c-0.29,0.25-6.29,5.66-6.29,5.66H81.96z"/>
		<path class="st3" d="M82.11,48.97H31.28c-4.17,0-7.58,3.41-7.58,7.58v6.97c0,4.17,3.41,7.58,7.58,7.58h50.83
			c4.17,0,7.59-3.41,7.59-7.58v-6.97C89.69,52.38,86.28,48.97,82.11,48.97z M39.31,62.2h-6.32c-1.19,0-2.16-0.97-2.16-2.16
			s0.97-2.16,2.16-2.16h6.32c1.19,0,2.16,0.97,2.16,2.16S40.49,62.2,39.31,62.2z M53,62.2h-6.32c-1.19,0-2.16-0.97-2.16-2.16
			s0.97-2.16,2.16-2.16H53c1.19,0,2.16,0.97,2.16,2.16S54.19,62.2,53,62.2z M66.7,62.2h-6.32c-1.19,0-2.16-0.97-2.16-2.16
			s0.97-2.16,2.16-2.16h6.32c1.19,0,2.16,0.97,2.16,2.16S67.89,62.2,66.7,62.2z M80.4,62.2h-6.32c-1.19,0-2.16-0.97-2.16-2.16
			s0.97-2.16,2.16-2.16h6.32c1.19,0,2.16,0.97,2.16,2.16S81.59,62.2,80.4,62.2z"/>
	</g>
</g>
</svg>
