<?xml version="1.0" encoding="utf-8"?>
<!-- Generator: Adobe Illustrator 23.0.2, SVG Export Plug-In . SVG Version: 6.00 Build 0)  -->
<svg version="1.1" xmlns="http://www.w3.org/2000/svg" xmlns:xlink="http://www.w3.org/1999/xlink" x="0px" y="0px"
	 viewBox="0 0 113.39 113.39" style="enable-background:new 0 0 113.39 113.39;" xml:space="preserve">
<style type="text/css">
	.st0{fill:#F4981C;}
	.st1{fill:#2AB8C8;}
	.st2{fill:#1A7580;}
	.st3{fill:#FFFFFF;}
	.st4{fill:#A45A17;}
	.st5{fill:#A45A16;}
</style>
<g id="Background">
	<circle cx="56.69" cy="56.69" r="56.69"/>
</g>
<g id="Shadow">
	<path class="st4" d="M88.15,64.15l-2.93-16.01l-5.78,1.09l-11.37-1.09H56.69L34.4,46.72l-8.32,1.43L2.13,72.09
		c5.31,18.86,20.13,33.73,38.97,39.11L88.15,64.15z"/>
</g>
<g id="Icon">
	<g>
		<path class="st3" d="M79.44,44.56H33.95c-5.76,0-10.45,4.69-10.45,10.45v3.36c0,5.76,4.69,10.45,10.45,10.45h45.49
			c5.76,0,10.45-4.69,10.45-10.45v-3.36C89.89,49.25,85.2,44.56,79.44,44.56z M85.22,58.38c0,3.19-2.59,5.78-5.78,5.78H33.95
			c-3.19,0-5.78-2.59-5.78-5.78v-3.36c0-3.19,2.59-5.78,5.78-5.78h45.49c3.19,0,5.78,2.59,5.78,5.78V58.38z"/>
		<path class="st3" d="M76.49,54.2H36.9c-1.37,0-2.49,1.12-2.49,2.49c0,1.37,1.12,2.49,2.49,2.49h39.59c1.37,0,2.49-1.12,2.49-2.49
			C78.98,55.32,77.86,54.2,76.49,54.2z"/>
	</g>
</g>
</svg>
