<?xml version="1.0" encoding="utf-8"?>
<!-- Generator: Adobe Illustrator 23.0.2, SVG Export Plug-In . SVG Version: 6.00 Build 0)  -->
<svg version="1.1" xmlns="http://www.w3.org/2000/svg" xmlns:xlink="http://www.w3.org/1999/xlink" x="0px" y="0px"
	 viewBox="0 0 113.39 113.39" style="enable-background:new 0 0 113.39 113.39;" xml:space="preserve">
<style type="text/css">
	.st0{fill:#F4981C;}
	.st1{fill:#2AB8C8;}
	.st2{fill:#1A7580;}
	.st3{fill:#FFFFFF;}
	.st4{fill:#A45A17;}
	.st5{fill:#A45A16;}
</style>
<g id="Background">
  <circle class="st0" cx="56.69" cy="56.69" r="56.69"/>
</g>
<g id="Shadow">
  <path class="st4" d="M69.01,89.24l-23.1,23.1c0,0-15.74-2.04-29.16-15.41c0,0-11.15-10.54-14.97-26.63L47.2,24.85
    c2.06-3.05,5.55-5.06,9.51-5.06c6.34,0,11.47,5.14,11.47,11.47c0,6.12-4.79,11.1-10.82,11.44l9.79,12.75L69.01,89.24z"/>
</g>
<g id="Icon">
	<path class="st3" d="M45.2,31.28c0-6.34,5.16-11.5,11.5-11.5c1.92,0,3.7,0.52,5.29,1.35c0.35,0.23,0.69,0.54,0.83,1.04
		c0.15,0.57,0.11,1.32-0.12,2.22c-0.2,0.78-0.53,1.61-0.98,2.47c-0.42,0.8-1,1.56-1.56,2.3l-9.71,12.76
		C47.62,38.46,45.2,35.45,45.2,31.28z"/>
	<path class="st3" d="M42.65,60.22l21.39-28.1c0.65-0.86,1.39-1.83,2-3c0.46-0.89,0.8-1.75,1.08-2.6
		c0.67,1.46,1.06,3.06,1.06,4.76c0,3.71-1.91,6.22-4.36,9.43L43.25,67.74c-0.81,1.05-1.61,2.1-2.4,3.16
		c-0.31,0.41-0.59,0.84-0.87,1.27c-0.45,0.72-0.87,1.46-1.24,2.23c-0.49,1.01-0.9,2.03-1.21,3.03c-0.03,0.11-0.05,0.22-0.08,0.33
		c-0.24-1.23-0.38-2.5-0.38-3.8C37.07,68.34,39.75,64.03,42.65,60.22z"/>
	<path class="st3" d="M56.69,93.6c-3.54,0-6.85-0.95-9.72-2.6c-0.55-0.36-1.09-0.73-1.59-1.14c-1.05-0.87-1.89-1.81-2.5-2.8
		c-0.53-0.86-0.9-1.79-1.1-2.75c-0.18-0.86-0.23-1.79-0.14-2.75c0.08-0.85,0.26-1.75,0.54-2.66c0.24-0.77,0.56-1.56,0.94-2.35
		c0.3-0.61,0.63-1.2,0.99-1.77c0.21-0.33,0.42-0.65,0.65-0.96c0.78-1.04,1.57-2.08,2.36-3.11l15.82-20.78l6.94,9.12
		c3.97,5.22,6.43,9.53,6.43,14.92C76.32,84.79,67.51,93.6,56.69,93.6z"/>
</g>
</svg>
