<?xml version="1.0" encoding="utf-8"?>
<!-- Generator: Adobe Illustrator 23.0.2, SVG Export Plug-In . SVG Version: 6.00 Build 0)  -->
<svg version="1.1" xmlns="http://www.w3.org/2000/svg" xmlns:xlink="http://www.w3.org/1999/xlink" x="0px" y="0px"
	 viewBox="0 0 113.39 113.39" style="enable-background:new 0 0 113.39 113.39;" xml:space="preserve">
<style type="text/css">
	.st0{fill:#F4981C;}
	.st1{fill:#2AB8C8;}
	.st2{fill:#1A7580;}
	.st3{fill:#FFFFFF;}
	.st4{fill:#A45A17;}
	.st5{fill:#A45A16;}
</style>
<g id="Background">
	<circle cx="56.69" cy="56.69" r="56.69"/>
</g>
<g id="Shadow">
	<path class="st4" d="M74.11,85.86l-1.65-8.12l0.26-44.6l-4.61-1.67l-8.36-1.09l-19.59-3.92l-39.4,39.4
		c3.89,23.91,22.73,42.79,46.62,46.74L74.11,85.86z"/>
</g>
<g id="Icon">
	<path class="st3" d="M72.12,24.73H41.27c-1.65,0-3,1.35-3,3v57.93c0,1.65,1.35,3,3,3h30.85c1.65,0,3-1.35,3-3V27.73
		C75.12,26.08,73.77,24.73,72.12,24.73z M53.65,30.39h6.09v1.09h-6.09V30.39z M56.69,84.03c-1.28,0-2.33-1.04-2.33-2.33
		s1.04-2.33,2.33-2.33c1.28,0,2.33,1.04,2.33,2.33S57.98,84.03,56.69,84.03z M71.06,75.78H42.33V35.71h28.73V75.78z"/>
</g>
</svg>
