<?xml version="1.0" encoding="utf-8"?>
<!-- Generator: Adobe Illustrator 23.0.2, SVG Export Plug-In . SVG Version: 6.00 Build 0)  -->
<svg version="1.1" xmlns="http://www.w3.org/2000/svg" xmlns:xlink="http://www.w3.org/1999/xlink" x="0px" y="0px"
	 viewBox="0 0 113.39 113.39" style="enable-background:new 0 0 113.39 113.39;" xml:space="preserve">
<style type="text/css">
	.st0{fill:#F4981C;}
	.st1{fill:#2AB8C8;}
	.st2{fill:#1A7580;}
	.st3{fill:#FFFFFF;}
	.st4{fill:#A45A17;}
	.st5{fill:#A45A16;}
</style>
<g id="Background">
	<circle cx="56.69" cy="56.69" r="56.69"/>
</g>
<g id="Shadow">
	<path class="st4" d="M85.76,73.23l-0.49-3.18c0,0-4.72-0.93-6.01-5.93l-0.91-1c0,0-5.05-1.1-6.01-5.89l-0.86-1.02
		c0,0-6.32-3.49-6.12-10.26c0.2-6.77,3.62-7.59,3.62-7.59s-0.55-1.2,0-2.28c0.55-1.08-1.24-3.29-1.24-3.29l-23.32,1.32l-2.62-1.18
		L2.24,72.47c5.92,20.45,23.03,36.14,44.28,39.98L85.76,73.23z"/>
</g>
<g id="Icon">
	<g>
		<g>
			<path class="st3" d="M56.69,85.25c-10.53,0-21.05-4.01-29.06-12.02c-0.78-0.78-0.78-2.05,0-2.83c0.78-0.78,2.05-0.78,2.83,0
				c14.47,14.46,38,14.47,52.47,0c0.78-0.78,2.05-0.78,2.83,0c0.78,0.78,0.78,2.05,0,2.83C77.74,81.24,67.22,85.25,56.69,85.25z"/>
			<path class="st3" d="M56.69,75.44c-8.01,0-16.02-3.05-22.12-9.15c-0.78-0.78-0.78-2.05,0-2.83c0.78-0.78,2.05-0.78,2.83,0
				c10.64,10.64,27.95,10.64,38.59,0c0.78-0.78,2.05-0.78,2.83,0c0.78,0.78,0.78,2.05,0,2.83C72.72,72.39,64.71,75.44,56.69,75.44z"
				/>
			<path class="st3" d="M56.69,65.63c-5.5,0-11-2.09-15.18-6.28c-0.78-0.78-0.78-2.05,0-2.83c0.78-0.78,2.05-0.78,2.83,0
				c6.81,6.81,17.9,6.81,24.71,0c0.78-0.78,2.05-0.78,2.83,0c0.78,0.78,0.78,2.05,0,2.83C67.69,63.53,62.19,65.63,56.69,65.63z"/>
		</g>
		<g>
			<path class="st3" d="M59.21,48.12h-5.04c-5.39,0-9.76-4.37-9.76-9.76v0h24.56v0C68.97,43.75,64.6,48.12,59.21,48.12z"/>
			<path class="st3" d="M70.02,32.14H43.36c-1.09,0-1.97,0.88-1.97,1.97v0c0,1.09,0.88,1.97,1.97,1.97h26.66
				c1.09,0,1.97-0.88,1.97-1.97v0C72,33.02,71.11,32.14,70.02,32.14z"/>
		</g>
	</g>
</g>
</svg>
