<?xml version="1.0" encoding="utf-8"?>
<!-- Generator: Adobe Illustrator 23.0.2, SVG Export Plug-In . SVG Version: 6.00 Build 0)  -->
<svg version="1.1" xmlns="http://www.w3.org/2000/svg" xmlns:xlink="http://www.w3.org/1999/xlink" x="0px" y="0px"
	 viewBox="0 0 113.39 113.39" style="enable-background:new 0 0 113.39 113.39;" xml:space="preserve">
<style type="text/css">
	.st0{fill:#F4981C;}
	.st1{fill:#2AB8C8;}
	.st2{fill:#1A7580;}
	.st3{fill:#FFFFFF;}
	.st4{fill:#A45A17;}
	.st5{fill:#A45A16;}
</style>
<g id="Background">
	<circle cx="56.69" cy="56.69" r="56.69"/>
</g>
<g id="Shadow">
	<path class="st5" d="M59.16,87.7l-1.23-4.5l4.49-5.24c-0.01-1.89,1.61-3.43,1.61-3.43l1.23-5.84l3.52-7.58
		c-0.75-1.09,0.7-3.7,0.7-3.7l-3.97-4.3l-8.82-7.33L42.7,32.79L2.41,73.08c5.13,17.01,18.03,30.65,34.58,36.78L59.16,87.7z"/>
</g>
<g id="Icon">
	<g>
		<path class="st3" d="M56.69,27.04c-10.43,0-18.88,7.83-18.88,17.5c0,5.09,2.35,9.67,6.09,12.87c0.3,0.26,0.69,0.39,1.08,0.39
			c3.39-0.01,20.01-0.01,23.41,0c0.4,0,0.78-0.13,1.08-0.39c3.74-3.2,6.09-7.78,6.09-12.87C75.57,34.88,67.12,27.04,56.69,27.04z"/>
		<path class="st3" d="M43.85,62.2c1.32,2.43,4.36,8.32,4.67,11.63c0.04,0.4,0.39,0.7,0.83,0.7h14.68c0.44,0,0.79-0.31,0.83-0.7
			c0.32-3.31,3.35-9.2,4.67-11.63c0.27-0.5-0.13-1.09-0.75-1.09H44.6C43.99,61.11,43.58,61.69,43.85,62.2z"/>
		<path class="st3" d="M50.03,79.37v3.95c0,0.95,0.77,1.73,1.73,1.73h0.96c0.25,1.97,1.95,3.51,3.98,3.51s3.73-1.54,3.98-3.51h0.96
			c0.95,0,1.73-0.77,1.73-1.73v-3.95c0-0.84-0.68-1.53-1.53-1.53H51.55C50.71,77.84,50.03,78.53,50.03,79.37z"/>
	</g>
</g>
</svg>
